<?xml version="1.0" encoding="utf-8"?>
<!-- Generator: Adobe Illustrator 25.0.1, SVG Export Plug-In . SVG Version: 6.00 Build 0)  -->
<svg version="1.1" id="creativity" xmlns="http://www.w3.org/2000/svg" xmlns:xlink="http://www.w3.org/1999/xlink" x="0px"
	 y="0px" viewBox="0 0 112 150" style="enable-background:new 0 0 112 150;" xml:space="preserve">
<style type="text/css">
	.st0{fill:url(#SVGID_1_);}
</style>
<linearGradient id="SVGID_1_" gradientUnits="userSpaceOnUse" x1="56" y1="5.9677" x2="56" y2="148.9181" gradientTransform="matrix(1 0 0 -1 0 152.5775)">
	<stop  offset="0" style="stop-color:#3298CB"/>
	<stop  offset="1" style="stop-color:#38BFC3"/>
</linearGradient>
<path class="st0" d="M38.8,138.9h44.4c1.3,0,2.4,1.1,2.4,2.4c0,1.3-1.1,2.4-2.4,2.4H38.8v0.9c0,1.3,0.5,2.8,1.6,3.8
	c0.9,1.1,2.4,1.6,3.8,1.6h47.9c1.3,0,2.8-0.5,3.8-1.6c1.1-0.9,1.6-2.4,1.6-3.8v-0.9h-6c-1.3,0-2.4-1.1-2.4-2.4
	c0-1.3,1.1-2.4,2.4-2.4h6v-9.6H38.8V138.9z M111.3,39.5C107.7,18.9,90.8,2.7,70.1,0.3C56.5-1.2,43.1,3.2,32.9,12.2
	C22.9,21,17.2,33.8,16.9,46.9L0,80.4h16.7v21.9h21.9v22.2h21.7v-24.4c0-1.1-0.3-1.8-0.9-2.5c-0.6-0.7-1.6-1.1-2.5-1.1
	c-1.7,0-3.4-0.7-4.6-2c-1.3-1.3-2-3-2-4.7v-0.9l0,0c-2.8-0.7-4.9-3.2-4.9-6.2c0-3.5,2.8-6.4,6.4-6.4c3.5,0,6.4,2.8,6.4,6.4
	c0,3-2.1,5.5-4.9,6.2l0,0v0.9c0,1.1,0.3,1.8,0.9,2.5c0.7,0.8,1.6,1.1,2.5,1.1c1.7,0,3.4,0.7,4.6,2c1.3,1.3,2,3,2,4.7v24.6h3.2V73.3
	c-2.8-0.7-4.8-3.2-4.8-6.2c0-3.5,2.8-6.4,6.4-6.4c3.6,0,6.4,2.8,6.4,6.4c0,3-2.1,5.5-4.8,6.2v51.2h3.4v-24.4c0-1.8,0.8-3.4,2-4.7
	c1.2-1.2,2.9-2,4.6-2c1.1,0,1.8-0.4,2.5-1.1s0.9-1.6,0.9-2.5v-0.9c-2.8-0.7-4.9-3.2-4.9-6.2c0-3.5,2.8-6.4,6.4-6.4
	c3.5,0,6.4,2.8,6.4,6.4c0,3-2.1,5.5-4.9,6.2v0.9c0,1.8-0.8,3.4-2,4.7c-1.2,1.2-2.9,2-4.6,2c-1.1,0-1.8,0.4-2.5,1.1
	c-0.7,0.7-0.9,1.6-0.9,2.5v24.3h21.2V100c0-10.4,2.5-19.7,7.2-27.2C110.9,63,113.3,51.3,111.3,39.5z M52,79.5c1.8,0,3.3,1.5,3.3,3.3
	c0,1.8-1.5,3.3-3.3,3.3c-1.8,0-3.3-1.5-3.3-3.3C48.7,81,50.2,79.5,52,79.5z M84.6,79.5c1.8,0,3.3,1.5,3.3,3.3c0,1.8-1.5,3.3-3.3,3.3
	c-1.8,0-3.3-1.5-3.3-3.3C81.3,81,82.8,79.5,84.6,79.5z M68.2,64c1.8,0,3.3,1.5,3.3,3.3c0,1.8-1.5,3.3-3.3,3.3
	c-1.8,0-3.3-1.5-3.3-3.3C64.9,65.5,66.4,64,68.2,64z"/>
</svg>
