<?xml version="1.0" encoding="utf-8"?>
<!-- Generator: Adobe Illustrator 25.2.3, SVG Export Plug-In . SVG Version: 6.00 Build 0)  -->
<svg version="1.1" id="design_system" xmlns="http://www.w3.org/2000/svg" xmlns:xlink="http://www.w3.org/1999/xlink" x="0px"
	 y="0px" viewBox="0 0 150 98" style="enable-background:new 0 0 150 98;" xml:space="preserve">
<style type="text/css">
	.st0{fill:url(#icon);}
</style>
<linearGradient id="icon" gradientUnits="userSpaceOnUse" x1="0" y1="48.9986" x2="150" y2="48.9986">
	<stop  offset="0.1115" style="stop-color:#3298CB"/>
	<stop  offset="0.9686" style="stop-color:#38BFC3"/>
</linearGradient>
<path id="icon" class="st0" d="M28.7,0.1c34,0.8,51,16.7,51,47.8c0,15.6-4.4,27.6-13.1,36S44.9,96.7,27.8,96.7H2.6
	C0.9,96.7,0,95.8,0,94V2.3c0-0.9,0.2-1.5,0.5-1.8c0.3-0.4,1-0.5,2-0.5C14.9,0,23.6,0,28.7,0.1z M19.3,15.6v65.7c0,0.6,0.1,1,0.4,1.2
	c0.3,0.2,0.7,0.3,1.3,0.3h3.3c12.2,0,21.2-2.7,26.8-8.1c5.6-5.4,8.4-14.3,8.4-26.8c0-8.1-1.1-14.5-3.4-19.3
	c-2.3-4.8-5.6-8.4-10.1-10.6c-4.5-2.3-10.3-3.6-17.5-3.9l-7.9-0.3C19.7,13.8,19.3,14.4,19.3,15.6z M129.9,39.1
	c-2.8-1.4-6-2.1-9.6-2.1c-3.8,0-7,0.8-9.4,2.3c-2.5,1.6-3.7,3.6-3.7,6.1c0,1.5,0.6,2.8,1.8,4c1.2,1.2,3.4,2.2,6.6,3.1l15.5,4.2
	c6.5,1.7,11.3,4.2,14.3,7.6c3,3.4,4.6,7.4,4.6,12.1c0,4.4-1.3,8.3-3.8,11.5c-2.6,3.3-6.1,5.8-10.7,7.5c-4.6,1.7-9.8,2.6-15.6,2.6
	c-7.2,0-13.5-1.3-18.9-4c-5.4-2.7-9.2-6.1-11.5-10.4C89.2,83,89,82.5,89,82.2c0-0.5,0.3-1,0.8-1.3l7.7-3.9c0.6-0.4,1.1-0.5,1.6-0.5
	c0.3,0,0.7,0.2,1.2,0.7c2.1,3,4.6,5.3,7.6,7c3,1.7,6.9,2.6,11.7,2.6c4.4,0,8.1-0.8,10.9-2.3c2.8-1.5,4.2-3.6,4.2-6.3
	c0-1.8-0.8-3.4-2.3-4.6c-1.5-1.3-4.1-2.4-7.9-3.3l-13.3-3.1c-6.6-1.6-11.4-3.9-14.5-7C93.5,57,92,53,92,48.1c0-4.3,1.2-8,3.5-11.3
	c2.3-3.3,5.6-5.9,9.9-7.7c4.3-1.8,9.3-2.7,15.1-2.7c6.2,0,11.6,1.2,16.4,3.5c4.8,2.3,8.3,5.2,10.6,8.8c0.4,0.7,0.7,1.3,0.7,1.7
	c0,0.4-0.2,0.8-0.7,1l-8.1,4c-0.5,0.2-0.8,0.3-0.9,0.3c-0.7,0-1.3-0.3-1.7-0.9C135,42.4,132.7,40.5,129.9,39.1z"/>
</svg>
