<?xml version="1.0" encoding="utf-8"?>
<!-- Generator: Adobe Illustrator 25.0.1, SVG Export Plug-In . SVG Version: 6.00 Build 0)  -->
<svg version="1.1" id="fire" xmlns="http://www.w3.org/2000/svg" xmlns:xlink="http://www.w3.org/1999/xlink" x="0px" y="0px"
	 viewBox="0 0 150 150" style="enable-background:new 0 0 150 150;" xml:space="preserve">
<style type="text/css">
	.st0{fill:url(#SVGID_1_);}
</style>
<linearGradient id="SVGID_1_" gradientUnits="userSpaceOnUse" x1="74.9822" y1="146.7022" x2="74.9822" y2="3.1299">
	<stop  offset="0" style="stop-color:#3298CB"/>
	<stop  offset="1" style="stop-color:#38BFC3"/>
</linearGradient>
<path class="st0" d="M93.9,150c10.6-17.1,2.7-40.1-15.7-50.7c1.2,4.6-0.3,16.6-8.5,24.1c1.8-7.8-2.7-12.6-2.7-12.6s-1.5,7-7.4,14.1
	c-5.3,6.6-9,13.3-2.2,25.2C15.4,139.6-5,115,1,91.8c4.2-17.1,20.1-31,21.4-48.1c6,8.9,6.7,15.5,7.4,25C48.9,49.4,68.7,23.5,64.5,0
	c0,0,36.2,9.3,50.6,55.2c8.6-6.4,7.8-19.5,3.5-27.2C131.2,35.8,194.9,118.6,93.9,150z"/>
</svg>
