<?xml version="1.0" encoding="utf-8"?>
<!-- Generator: Adobe Illustrator 25.0.1, SVG Export Plug-In . SVG Version: 6.00 Build 0)  -->
<svg version="1.1" id="gears" xmlns="http://www.w3.org/2000/svg" xmlns:xlink="http://www.w3.org/1999/xlink" x="0px"
	 y="0px" viewBox="0 0 150 150" style="enable-background:new 0 0 150 150;" xml:space="preserve">
<style type="text/css">
	.st0{fill:url(#SVGID_1_);}
</style>
<linearGradient id="SVGID_1_" gradientUnits="userSpaceOnUse" x1="147.0646" y1="1076.1372" x2="2.0911" y2="929.0428" gradientTransform="matrix(1 0 0 1 0 -928)">
	<stop  offset="0.1115" style="stop-color:#3298CB"/>
	<stop  offset="0.9686" style="stop-color:#38BFC3"/>
</linearGradient>
<path class="st0" d="M22.6,40.9c1.2,0,2.5-1.1,2.5-2.4v-1.8c0-0.4,0.5-1,1.1-1.2c0.5-0.3,1.1-0.4,1.6-0.7c0.3-0.1,0.5-0.3,0.8-0.3
	c0.4,0,0.8,0.1,1.1,0.4l1.4,1.4c0.5,0.5,1.1,0.8,1.8,0.8s1.2-0.3,1.8-0.8L37,34c1-1,1-2.6,0-3.5l-1.4-1.4C35,28.7,35,28,35.3,27.5
	s0.5-1.1,0.7-1.6s0.8-1.1,1.2-1.1h1.9c1.2,0,2.5-1.1,2.5-2.6v-3.3c0-1.2-1.1-2.4-2.5-2.4h-1.9c-0.4,0-1-0.5-1.2-1.1
	c-0.3-0.5-0.4-1.1-0.7-1.6c-0.1-0.5-0.1-1.4,0.3-1.6l1.4-1.4c0.5-0.5,0.8-1.1,0.8-1.8S37.5,7.8,37,7.2l-2.3-2.3
	c-0.5-0.5-1.1-0.8-1.8-0.8s-1.2,0.3-1.8,0.8l-1.4,1.2c-0.3,0.1-0.7,0.4-1.1,0.4c-0.3,0-0.5-0.1-0.8-0.3c-0.5-0.3-1.1-0.5-1.6-0.7
	c-0.5-0.1-1.1-0.8-1.1-1.2V2.4C25.1,1.2,24,0,22.5,0h-3.3c-1.4,0-2.6,1.1-2.6,2.4v1.9c0,0.4-0.5,1-1.1,1.2C15,5.8,14.4,6,13.9,6.3
	c-0.3,0.1-0.5,0.3-0.8,0.3c-0.4,0-0.8-0.1-1.1-0.3l-1.4-1.4c-0.5-0.5-1.1-0.8-1.8-0.8S7.6,4.4,7.1,4.9L4.8,7.2c-1,1-1,2.6,0,3.5
	l1.4,1.4c0.5,0.4,0.5,1.1,0.3,1.6c-0.3,0.5-0.5,1.1-0.7,1.6c-0.1,0.5-0.8,1.1-1.2,1.1h-2c-1.4,0-2.5,1.1-2.6,2.6v3.1h0.3
	c0,1.2,1.1,2.4,2.6,2.4h1.9c0.4,0,1,0.5,1.2,1.1c0.3,0.5,0.4,1.1,0.7,1.6c0.1,0.5,0.1,1.4-0.3,1.6L5,30.3c-1,1-1,2.6,0,3.5l2.3,2.3
	C7.9,36.7,8.4,37,9.1,37s1.2-0.3,1.8-0.8l1.4-1.4c0.3-0.1,0.7-0.4,1.1-0.4c0.3,0,0.5,0,0.7,0.3c0.5,0.3,1.1,0.5,1.6,0.7
	c0.5,0.1,1.1,0.8,1.1,1.2v1.9c0,1.2,1.1,2.4,2.6,2.4H22.6z M14.7,20.7c0.1-3.3,2.7-6,6-6s6,2.7,6,6s-2.7,6-6,6S14.7,23.9,14.7,20.7z
	 M142,70.9h-6.3c-1.6,0-3.5-1.5-4.4-3.3c-0.7-1.8-1.4-3.4-2.2-5.2c-1-1.8-0.5-4.2,0.8-5.3l4.5-4.5c1.5-1.5,2.3-3.5,2.3-5.7
	s-0.8-4.2-2.3-5.7l-7.4-7.3c-1.2-1.5-3.3-2.3-5.4-2.3c-2.2,0-4.2,0.8-5.7,2.3l-4.5,4.5c-0.8,0.8-2,1.1-3.3,1.1c-1,0-1.5-0.1-2.3-0.4
	c-1.8-1-3.4-1.4-5.2-2.2c-1.8-0.7-3.3-2.6-3.3-4.4v-6.3c0-4.5-3.5-8-8-8H79c-4.5,0-8,3.5-8,8v6.3c0,1.6-1.5,3.5-3.3,4.4
	c-1.8,0.7-3.4,1.4-5.2,2.2c-0.8,0.3-1.5,0.4-2.3,0.4c-1.2,0-2.5-0.4-3.3-1.1l-4.5-4.5c-1.5-1.5-3.5-2.3-5.7-2.3s-4.2,0.8-5.7,2.3
	l-7.5,7.3c-3.3,3.3-3.3,8.3,0,11.6l4.5,4.5c1.2,1.1,1.6,3.5,0.8,5.3c-1,1.8-1.4,3.4-2.2,5.2C36,69.5,34.1,71,32.3,71H26
	c-4.5,0-8,3.5-8,8v10.3c0,4.4,3.5,7.9,8,7.9h6.3c1.6,0,3.5,1.5,4.4,3.3c0.7,1.8,1.4,3.4,2.2,5.2c0.8,1.8,0.5,4.2-0.8,5.3l-4.5,4.5
	c-3.3,3.3-3.3,8.3,0,11.6l7.4,7.3c1.5,1.5,3.5,2.3,5.7,2.3s4.2-0.8,5.7-2.3l4.5-4.5c0.8-0.8,2-1.1,3.3-1.1c1,0,1.5,0.1,2.3,0.4
	c1.8,1,3.4,1.4,5.2,2.2c1.8,0.7,3.3,2.6,3.3,4.4v6.3c0,4.5,3.5,8,8,8h10.4c4.5,0,8-3.5,8-8v-6.3c0-1.6,1.5-3.5,3.3-4.4
	c1.8-0.7,3.4-1.4,5.2-2.2c0.8-0.3,1.5-0.4,2.3-0.4c1.4,0,2.5,0.4,3.3,1.1l4.5,4.5c1.5,1.5,3.5,2.3,5.7,2.3s4.2-0.8,5.7-2.3l7.4-7.3
	c3.3-3.3,3.3-8.3,0-11.6l-4.5-4.5c-1.2-1.1-1.6-3.5-0.8-5.3c1-1.8,1.4-3.4,2.2-5.2c0.7-1.8,2.6-3.3,4.4-3.3h6.1c4.5,0,8-3.5,8-8
	V78.9C150,74.4,146.5,70.9,142,70.9z M84.2,103.5c-10.6,0-19.5-8.7-19.5-19.4s8.9-19.4,19.5-19.4s19.5,8.8,19.5,19.4
	S94.8,103.5,84.2,103.5z"/>
</svg>
