<?xml version="1.0" encoding="utf-8"?>
<!-- Generator: Adobe Illustrator 25.2.3, SVG Export Plug-In . SVG Version: 6.00 Build 0)  -->
<svg version="1.1" id="map" xmlns="http://www.w3.org/2000/svg" xmlns:xlink="http://www.w3.org/1999/xlink" x="0px" y="0px"
	 viewBox="0 0 105.5 150" style="enable-background:new 0 0 105.5 150;" xml:space="preserve">
<style type="text/css">
	.st0{fill:url(#icon);}
</style>
<linearGradient id="icon" gradientUnits="userSpaceOnUse" x1="0.5019" y1="75" x2="105.502" y2="75">
	<stop  offset="0.1115" style="stop-color:#3298CB"/>
	<stop  offset="0.9686" style="stop-color:#38BFC3"/>
</linearGradient>
<path id="icon" class="st0" d="M0.5,38.9h27.6V0H0.5V38.9z M39.2,150h27.6v-38.9H39.2V150z M0.5,150h27.6v-38.9H0.5V150z
	 M0.5,94.4h27.6V55.6H0.5V94.4z M39.2,94.4h27.6V55.6H39.2V94.4z M77.9,0v38.9h27.6V0H77.9z M39.2,38.9h27.6V0H39.2V38.9z
	 M77.9,94.4h27.6V55.6H77.9V94.4z M77.9,150h27.6v-38.9H77.9V150z"/>
</svg>
