<?xml version="1.0" encoding="utf-8"?>
<!-- Generator: Adobe Illustrator 25.2.3, SVG Export Plug-In . SVG Version: 6.00 Build 0)  -->
<svg version="1.1" id="mind" xmlns="http://www.w3.org/2000/svg" xmlns:xlink="http://www.w3.org/1999/xlink" x="0px" y="0px"
	 viewBox="0 0 145 150" style="enable-background:new 0 0 145 150;" xml:space="preserve">
<style type="text/css">
	.st0{fill:url(#icon);}
</style>
<linearGradient id="icon" gradientUnits="userSpaceOnUse" x1="1.445903e-02" y1="75.0129" x2="145.0401" y2="75.0129" gradientTransform="matrix(1 0 0 -1 0 150)">
	<stop  offset="0.1115" style="stop-color:#3298CB"/>
	<stop  offset="0.9686" style="stop-color:#38BFC3"/>
</linearGradient>
<path id="icon" class="st0" d="M65.2,124c0-14.5,8-31.6,21.1-31.6c11.1,0,23.2-10.5,14.6-18.5c21.7,0,35.9-6.2,32.5-15.7
	c17.8,0,13.9-29.7-3-30.4c2.7-9-9.9-18.2-18.2-14.9C108.6,2.1,89.2-1.6,79,5.2c-8.7-7.8-33.5-7.5-39.5,6.5
	c-16.1-4.8-25.7,11-25.1,15.8C6.7,28.4,3.1,41.8,7.3,46.3c-8.1,5.1-12.1,28.9,2.4,38.5c-3.8,8.8,7.5,20.6,17.6,14
	c1.2,23.9,23.3,19.1,28.4,10.4c2.5,2.1,3.4,11.4,3.4,14.7c0,17.4-0.1,26,3.1,26C65.3,150,65.2,141.3,65.2,124z"/>
</svg>
