<svg xmlns="http://www.w3.org/2000/svg" width="400" height="200" viewBox="0 0 400 200">
  <g id="rapport" transform="translate(0 0.01)">
    <path id="Path_85" data-name="Path 85" d="M7.4,62.64l.2.6.45-.45c5.05-5,12.2-6.35,16.65-5.1,2.5.7,4.2,2.2,4.7,4.15a6.338,6.338,0,0,1-3.25,7.2l-.9.5,1,.2a13.429,13.429,0,0,0,2.75.2c5.25,0,14.6-1.9,20.15-11,4.05-7.1,4.9-14.05,2.45-20.65-4-10.8-15.95-18.4-25-21.65l-1-.35.55.9c3.3,5.55,4.15,10.6,2.35,13.45-1.25,2-3.8,2.9-7.35,2.6A19.758,19.758,0,0,1,4.2,19.89l-.2-.6-.45.5A11.419,11.419,0,0,1,0,22.19v.85a11.577,11.577,0,0,0,3.65-2.3A20.429,20.429,0,0,0,21,33.99c4.85.4,7.1-1.35,8.05-2.9,1.85-2.95,1.15-7.9-1.85-13.35,8.75,3.35,19.85,10.65,23.6,20.85,2.35,6.4,1.55,13.15-2.4,20-5.15,8.35-14.1,10.65-19.5,10.65-.6,0-1.1-.05-1.6-.05a6.936,6.936,0,0,0,2.75-7.45c-.55-2.25-2.4-3.95-5.2-4.75-4.4-1.2-11.5-.2-16.95,4.9-1.2-3.4-3.1-5.45-5.7-6.1a6.506,6.506,0,0,0-2.2-.3v.8a6.972,6.972,0,0,1,2.05.2C4.5,57.09,6.3,59.19,7.4,62.64Z" transform="translate(0 65.117)" fill="#38bfc3"/>
    <path id="Path_86" data-name="Path 86" d="M80.74,75.39l-.05-.1a33.2,33.2,0,0,0-10.75-12.1c4.6.95,14.75,2.6,20.05,1.9l.2-.05.1-.2c1.35-3.45,4.2-25.5-3.35-35.4l-1.55-2,.9,2.35c4.9,13.25.85,25.75-.2,28.6-2.2.45-10-.9-15.95-2.15a39.511,39.511,0,0,0,11.7-3.5l.15-.05.05-.15c2.85-7.7.7-27.3-9.7-33.95l-1.6-1,1.05,1.55c7.25,10.45,6.65,24.6,5.15,28.95-2.1.9-12.35,1.7-16.8.1a9.1,9.1,0,0,0,2.4-7.7c-.35-2.15-1.75-5-6.4-6.25-3.55-.95-6.6-.1-8.6,2.4a9.228,9.228,0,0,0-1.75,7.8c-4.65-.8-13.25-6.5-14.65-8.35.85-4.6,7.15-17.35,18.35-22.8l1.7-.85-1.9.1c-12.3.75-23.55,16.9-24.7,25v.15l.1.1a40.03,40.03,0,0,0,8.6,8.8c-5.65-1.75-13.25-4.4-15-5.9.4-3,2.8-15.85,13.5-25.1l1.9-1.65-2.3,1c-11.25,5-19.4,25.65-19.85,29.35l-.05.2.15.15c4.3,3.3,14,6.75,18.45,8.2a32.782,32.782,0,0,0-15.2,5.3l-.1.05-.05.1c-2.55,5.9-6.9,22.05,7.8,45.3l.65-.35c-6.4-16.7-6.4-32.7-3.55-41.2,2.65-2.1,7.85-2.45,10.85-2.4a26.27,26.27,0,0,0-7.55,5.05l-.1.15c-3.5,10.3-1.15,21.3,6.8,31.85l.65-.4c-4.75-9.15-4.4-24.3-2.8-27.9,2.95-1.95,7.65-3.75,10-3.3-6.4,11.05-5.75,25.5,1.6,34.55l.15.2.25-.05c12.2-3.5,18.35-17.7,18.05-29.5,2.05.8,5.45,4.4,7.2,7.8-.3,3.9-7.3,17.35-15.8,23.05l.35.65c12-5.35,19.3-13.8,21.15-24.55v-.2a28.194,28.194,0,0,0-4.2-8.05c2.6,1.35,6.95,4.15,8.35,7.4-1.6,8.85-9.25,22.9-22.75,34.3l.4.6c24-13.25,27.9-29.55,28.45-35.9Zm-25.6,33.45c11.95-11.1,18.75-24,20.2-32.35v-.1l-.05-.1c-1.75-4.35-8.6-7.95-10.35-8.65l-1.65-.7,1.2,1.3a26.539,26.539,0,0,1,5.15,9c-1.65,9.45-7.7,17.1-17.5,22.35,7.5-6.65,13.1-17.95,13.25-21.55v-.1l-.05-.1c-1.85-3.6-5.75-7.95-8.2-8.4l-.45-.1v.45c.45,11.55-5.4,25.65-17.25,29.2-7.1-8.95-7.55-23.15-1.1-33.95l.25-.4-.45-.15c-2.3-.85-7.8,1.05-11.2,3.35l-.1.05-.05.1c-1.55,3.2-2.1,15.8,1.3,25.25-6.1-9.4-7.7-19.05-4.65-28.1a26.461,26.461,0,0,1,8.8-5.4l1.6-.5-1.65-.2c-1.75-.25-9.5-.5-13.2,2.55l.05.1-.05.1c-2.7,8-2.95,22.6,2.25,38.25-12.05-21.1-8.2-35.7-5.85-41.25a31.449,31.449,0,0,1,16.9-5.2l3.2-.05-3.1-.7c-2.05-.45-15.05-4.8-20.15-8.55.7-3.8,7.35-20.55,16.75-27.05a43.8,43.8,0,0,0-11.5,23.65v.2l.15.15c1.95,1.95,13.4,5.6,17.6,6.85l2.4.7-2.05-1.35a40.548,40.548,0,0,1-10.1-9.75c1.15-7.5,10.9-21.75,21.95-24-10.45,6.1-16.3,18.2-17,22.55v.15l.1.1c1.3,1.9,11.1,8.5,15.95,8.85l.65.05-.3-.6c-.85-1.7-.5-5.25,1.4-7.6,1.25-1.6,3.65-3.25,7.8-2.15,4.25,1.1,5.5,3.7,5.85,5.65.5,3-.95,6.3-2.6,7.4l-.55.35.6.3c4.45,2.05,16.15,1.1,18.2.05l.15-.05.05-.15c1.5-4.1,2.25-17.5-4.1-28.05,8.65,7.3,10.35,24.55,7.8,31.7a40.913,40.913,0,0,1-13.55,3.6l-2.5.2,2.45.55c5.35,1.2,16.2,3.3,18.7,2.6l.2-.05.05-.2c.85-2.3,4.75-13.65,1.25-26.25,4.85,9.9,3.15,27.6,1.7,31.8-6.5.8-19.95-1.9-21.65-2.35l-2.9-.85,2.65,1.5a31.988,31.988,0,0,1,12.3,12.85C79.39,81.54,75.84,96.19,55.14,108.84Z" transform="translate(45.96 49.708)" fill="#38bfc3"/>
    <path id="Path_87" data-name="Path 87" d="M40.873,41.67l-.15-.05c-3.6-1.05-8.8-3.7-13.85-6.25-5.5-2.85-10.75-5.5-13.65-5.95l-.25-.05-.15.2a20.314,20.314,0,0,0-2.1,5l-.05.4.4.05a41.942,41.942,0,0,1,5.35,2.75c-3.3,2-4.8,6.85-4,10.2a19.48,19.48,0,0,1-4.8-2.4l-.15-.15-.2.1c-1.4.6-2.25,3.5-2.05,5.7v.25l.2.1c2.7,1.05,22,9.2,27.05,11.9l.1.05h.1a3.236,3.236,0,0,0,2.35-1.8,3.749,3.749,0,0,0,0-3.7l-.1-.15h-.2a27.26,27.26,0,0,1-6.9-2.75,7.3,7.3,0,0,0,4.4-3.5,9.892,9.892,0,0,0,1.15-6.8c2.15.85,6.05,2.65,6.1,2.65l.1.05h.1c.25,0,.5-.2.7-.55a6.708,6.708,0,0,0,.45-5Zm-1.15,4.95c-.85-.4-5-2.3-6.75-2.9l-.8-.3.35.8a8.443,8.443,0,0,1-.85,6.9,6.358,6.358,0,0,1-4.9,3.3l-1.15.1,1,.6c.2.1,4.95,2.8,7.9,3.3a2.943,2.943,0,0,1-.1,2.8,2.493,2.493,0,0,1-1.6,1.4c-5.2-2.75-23.4-10.4-26.8-11.8-.1-2,.65-4.05,1.4-4.6a18.33,18.33,0,0,0,5.5,2.6l.65.15-.2-.65c-1.15-3.3.4-8.6,4-10.3l.65-.3-.65-.2a58.179,58.179,0,0,0-5.85-3.1,19.107,19.107,0,0,1,1.8-4.25c2.85.55,7.9,3.1,13.2,5.85,5,2.55,10.1,5.2,13.8,6.25A6.435,6.435,0,0,1,39.723,46.62Z" transform="translate(20.777 117.37)" fill="#38bfc3"/>
    <path id="Path_88" data-name="Path 88" d="M16.047,32.087c-5.1-2.35-7.7,2.3-8,2.9a6,6,0,0,0-.1,4.3,5.926,5.926,0,0,0,3.1,3.55,6.943,6.943,0,0,0,2.8.65,6.877,6.877,0,0,0,2.25-.4,5.561,5.561,0,0,0,3.15-2.85A6,6,0,0,0,16.047,32.087Zm2.55,7.8a4.535,4.535,0,0,1-2.7,2.45,5.856,5.856,0,0,1-4.5-.2,5.318,5.318,0,0,1-2.7-3.15,4.929,4.929,0,0,1,.05-3.7c.3-.6,1.8-3.1,4.55-3.1a5.475,5.475,0,0,1,2.45.6A5.2,5.2,0,0,1,18.6,39.887Z" transform="translate(30.403 125.628)" fill="#38bfc3"/>
    <path id="Path_89" data-name="Path 89" d="M42.81,30.7l-.25.2c-2.55,1.9-6.15,5.25-8.5,7.45-.75.7-1.4,1.3-1.9,1.75l-.25.25.25.3c2.6,3.05,10.9,9.45,11.85,10l.35.2.2-.35c2.75-5.8,3.15-14.6-1.45-19.45Zm1.2,19c-1.75-1.25-8.55-6.55-11.05-9.3q.675-.6,1.65-1.5c2.25-2.1,5.65-5.25,8.15-7.15C46.76,36.3,46.41,44.25,44.01,49.7Z" transform="translate(127.64 122.69)" fill="#38bfc3"/>
    <path id="Path_90" data-name="Path 90" d="M51.34,42.78c-2.7-2.35-7.8-6.75-11.75-8.85l-.2-.1-.2.1a37.56,37.56,0,0,0-10.8,10.7l-.2.35.35.2c5.1,3,9.3,4.15,12.85,4.15,4.75,0,8.4-2.05,11.6-4.5l.4-.3-.4-.3A20.575,20.575,0,0,0,51.34,42.78Zm-22.05,1.9a37.849,37.849,0,0,1,10.2-10.05c3.85,2.1,8.75,6.35,11.4,8.65.55.45,1,.85,1.35,1.15C47.19,48.18,40.89,51.33,29.29,44.68Z" transform="translate(112.76 135.21)" fill="#38bfc3"/>
    <path id="Path_91" data-name="Path 91" d="M42.055,41.66l-.25-.25c-.1-.1-8.3-8.55-10.25-10.6l-.3-.3-.25.3c-4.5,4.6-5.2,9.15-5.05,12.2a13.538,13.538,0,0,0,4.7,9.55l.3.2.25-.25c1.15-1.3,6.25-6.35,10.6-10.6Zm-11.2,10.1a12.774,12.774,0,0,1-4.15-8.8c-.15-2.8.5-7.05,4.55-11.35,2.1,2.2,8.35,8.65,9.7,10.05C36.755,45.81,32.355,50.16,30.855,51.76Z" transform="translate(103.745 121.93)" fill="#38bfc3"/>
    <path id="Path_92" data-name="Path 92" d="M41.11,42.716l.25-.25a140.884,140.884,0,0,1,10.7-9.2l.9-.7-.35-.3c-5.45-4.35-20-4.15-24.1-2.05l-.5.25,12.85,12Zm10.65-10.15-.15.1c-2,1.6-5.75,4.5-10.5,9l-11.8-11C33.71,28.966,46.51,28.916,51.76,32.566Z" transform="translate(112.04 115.008)" fill="#38bfc3"/>
    <path id="Path_93" data-name="Path 93" d="M55.262,26.75c-17.6,0-30.95,13.4-31.65,31.85-.3,7.4,1.85,13.6,6.4,18.4,6.05,6.4,16,9.85,28.85,10.05h.75c19.45,0,31.75-11.75,33-31.55.4-5.95-1.8-11.6-6.3-16.4C79.262,31.55,67.062,26.75,55.262,26.75Zm4.3,59.55h-.75c-12.65-.2-22.4-3.6-28.3-9.85-4.4-4.65-6.45-10.65-6.2-17.85.7-18.05,13.7-31.15,30.95-31.15,11.6,0,23.6,4.75,30.5,12.1,4.35,4.65,6.45,10.1,6.1,15.85C90.612,74.8,78.562,86.3,59.562,86.3Z" transform="translate(94.338 106.89)" fill="#38bfc3"/>
    <path id="Path_94" data-name="Path 94" d="M62.45,49.81l.2.25,14.8-9.4-.55-.3c-8.85-4.75-36.65-25.7-36.95-25.9l-.2-.15-10.9,6.75,3.45,48.7,12.6-7.65.2-.1L43.85,33.66A112.34,112.34,0,0,1,62.45,49.81Zm-18.8-17.3-.6-.4L44.3,61.56l-11.35,6.9-3.35-47,10.1-6.25c2.5,1.9,27.25,20.5,36.3,25.5l-13.2,8.4A124.2,124.2,0,0,0,43.65,32.51Z" transform="translate(115.4 57.206)" fill="#38bfc3"/>
    <path id="Path_95" data-name="Path 95" d="M125.84,54.42l-.3-.35c-3.85-4.45-13.6-18.25-15.3-24.3l-.05-.15-.15-.05c-9.25-3.3-44.5-7.7-51.9-7.7h-.7l-.1.05c-4.6,3.25-18.95,11.2-22.55,12.95l-.3.15.15.3c1.35,3.05,9.95,12.7,19.05,22.95,9.15,10.25,18.55,20.85,20.7,24.85l.2.35.35-.25c6.55-4.55,47.5-27.2,50.5-28.55Zm-51.05,28c-2.5-4.35-11.7-14.65-20.6-24.65-8.4-9.45-17.05-19.15-18.75-22.45,4-2,17.65-9.6,22.2-12.75h.45c7.15,0,42.3,4.45,51.45,7.6,1.9,6.35,11.25,19.5,15.1,24.05C119.49,56.82,81.99,77.57,74.79,82.42Z" transform="translate(137.96 87.37)" fill="#38bfc3"/>
    <path id="Path_96" data-name="Path 96" d="M54.84,30.97l.25.4.3-.35a7.647,7.647,0,0,0,1.55-5.2l-.05-.25L44.54,23.72l2,1C46.64,24.72,52.89,27.87,54.84,30.97Zm1.45-4.8a7.277,7.277,0,0,1-1.15,4c-1.55-2.05-4.55-4-6.5-5.1Z" transform="translate(178.16 94.828)" fill="#38bfc3"/>
    <path id="Path_97" data-name="Path 97" d="M82.87,26.326l-.3.45a20.239,20.239,0,0,0-2.65,9.2h-9c-7.75-12.05-18.75-11.9-22.8-11.85h-.65c-6.7,0-7.25,3.75-7.25,4.9,0,3.4,4.1,3.9,9.8,4.6,1.7.2,3.65.45,5.7.75,20.3,3.05,19.6,11.7,19.2,16.85l-.1,1.15.4-.05c3-.3,17.2-6.7,18.8-9.65l.1-.2-.15-.2c-1.1-1.5-9.3-13.1-10.9-15.55Zm-7.25,25.25v-.25c.4-5.05,1.1-14.45-19.8-17.6-2.05-.35-4-.55-5.75-.75-5.55-.65-9.2-1.1-9.2-3.85,0-1.25.65-4.15,6.55-4.15h1.6c4.6,0,14.35.65,21.35,11.7l.1.15H80.52v-.35a20.479,20.479,0,0,1,2.3-8.75c2.05,3.05,9,12.9,10.45,14.9C91.42,45.226,79.12,50.826,75.62,51.576Z" transform="translate(160.88 96.409)" fill="#38bfc3"/>
    <path id="Path_98" data-name="Path 98" d="M57.61,23.855l1.55-.5-1.6-.2c-6.15-.7-10,1.75-16.35,5.75-1.4.9-2.95,1.85-4.65,2.9l-.25.15.1.25c.75,2.25,2.95,4.7,5.5,7.55.75.8,1.5,1.65,2.25,2.5l.75.85-.15-1.05C43.86,32.955,48.06,27.005,57.61,23.855Zm-13.65,17.2c-.5-.6-1.05-1.15-1.55-1.7-2.4-2.65-4.5-5-5.3-7.05,1.6-1,3.1-1.9,4.4-2.75,5.65-3.6,9.1-5.8,13.9-5.8h.35C47.36,27.005,43.46,32.705,43.96,41.055Z" transform="translate(145.24 92.089)" fill="#38bfc3"/>
    <path id="Path_99" data-name="Path 99" d="M42.68,30.93l-1.6-.4.8.85c1.3,1.4,8.35,8.5,8.45,8.6l.15.15.2-.1c.05-.05,7.25-3.1,11.9-7.15l1.4-1.2-1.75.6C58.33,33.73,51.73,33.28,42.68,30.93Zm8,8.4c-.95-.95-5.35-5.4-7.4-7.5,7.7,1.9,13.6,2.45,17.6,1.65A56.587,56.587,0,0,1,50.68,39.33Z" transform="translate(164.32 122.04)" fill="#38bfc3"/>
    <path id="Path_100" data-name="Path 100" d="M61.72,35.74a5.417,5.417,0,0,0,5.9-.2,3.306,3.306,0,0,0,1.35-3.35c-.25-1-1.2-2.8-5.15-3.65-3.85-.85-7.55-.3-11.1.25-4.35.65-8.45,1.3-12.75-.5l-1.3-.5,7.15,8.75.3-.25C49.12,33.59,55.77,32.64,61.72,35.74Zm-15.85-.2-5-6.15c4.05,1.3,8.05.7,11.9.1,3.5-.55,7.15-1.1,10.85-.25,2.6.55,4.3,1.7,4.6,3.1a2.672,2.672,0,0,1-1.1,2.65,4.739,4.739,0,0,1-5.15.15,17.65,17.65,0,0,0-8.15-2A12.859,12.859,0,0,0,45.87,35.54Z" transform="translate(154.68 111.091)" fill="#38bfc3"/>
    <path id="Path_101" data-name="Path 101" d="M35.45,25.1C33.35,18.45,30.8,9.55,28.1,0h-.8c2.65,9.45,5.2,18.25,7.3,24.9a56.15,56.15,0,0,0-17,5.35,67.172,67.172,0,0,0-.9-12.55l1.75-.4L23.55,6,14.2,0h0L14,.4a2.347,2.347,0,0,1-.5.8A10.859,10.859,0,0,0,13.15,0H12.4c.15.6.35,1.25.5,1.85C10,4.6,3.05,8,.9,9L2.25,0H1.5L0,10.15v.15L.6,10c.5-.25,11.75-5.4,13.9-8.9l8.15,5.15-4.7,10.4L0,20.6v.75L16,17.8a67.37,67.37,0,0,1,.85,13l-.05.65.55-.3a55.958,55.958,0,0,1,17.8-5.6l.45-.05Z" transform="translate(0 0.04)" fill="#38bfc3"/>
    <path id="Path_102" data-name="Path 102" d="M44.25,10.35A37.467,37.467,0,0,0,42.75,0h-.8a37.188,37.188,0,0,1,1.5,10.35C43.45,26.8,31.15,43.5,7.7,43.5c-2.9-.05-5.4-.15-7.7-.3v.75c2.3.15,4.85.25,7.7.3C31.7,44.25,44.25,27.2,44.25,10.35Z" transform="translate(0 0.04)" fill="#38bfc3"/>
    <path id="Path_103" data-name="Path 103" d="M87.75,1.54l-.05.2c-.25.95-3.2,12.75-3.85,15.35l-10.5-6.25-1.5,12.15c-2.4-1.15-13.25-6.35-16.55-7.9l-.1-.05-.15.05c-4.45,1.2-8.15,3.55-11.4,5.6a42.34,42.34,0,0,1-7,3.8l-.45.15.2.4c.9,1.7,3.65,3.4,6.7,4.1a10.515,10.515,0,0,0,8.8-1.4c1.05-.8,3.9-2.95,4.6-3.5l19.35,8.6.4.2,2.25-10.4,10.3,5.1L93.75,8.09c6.05-1.8,10.2-4.5,12.6-8.05h-.9c-2.4,3.25-6.4,5.7-12.1,7.4l-.15.05L88.35,26.64l-10.3-5.1L75.8,31.94l-19.15-8.5-.2-.1-.2.15c-.05.05-3.6,2.7-4.8,3.65a10,10,0,0,1-8.2,1.25,11.107,11.107,0,0,1-6-3.35A45.512,45.512,0,0,0,44,21.34c3.35-2.1,6.8-4.3,11.1-5.5,3.85,1.85,16.75,8,16.85,8.1l.45.2,1.5-12.05,10.4,6.15.1-.5c.05-.15,3.35-13.55,3.9-15.65,1.9-.45,4.6-1.2,7.55-2.1h-2.6c-2.1.6-3.95,1.1-5.35,1.45Z" transform="translate(144.8 0)" fill="#38bfc3"/>
    <path id="Path_104" data-name="Path 104" d="M39.24,13.547a5.709,5.709,0,0,0,1.65.25,10.37,10.37,0,0,0,5.15-1.7c2.4-1.35,8.7-5,12.3-6.2l.4-.15-.2-.4c-.8-1.5-4.2-6.05-14.45-1.3-2.25,1-6.85,3.2-9.25,3.45l-.5.05.2.45C35.89,11.2,37.34,12.9,39.24,13.547ZM44.39,4.7c8.75-4.05,12.1-1.2,13.25.6a91.257,91.257,0,0,0-12,6.15c-2.55,1.5-4.55,1.95-6.2,1.4-1.6-.55-2.85-2-4.05-4.7C38.04,7.7,42.29,5.7,44.39,4.7Z" transform="translate(137.36 7.793)" fill="#38bfc3"/>
    <path id="Path_105" data-name="Path 105" d="M42.7.5,42.65,0h-1.6c.4.1.85.3,1.15.35Z" transform="translate(164.2 0.04)" fill="#38bfc3"/>
    <path id="Path_106" data-name="Path 106" d="M32.63,3.15l.1.35c.9,2.85,2.4,6.25,5.75,7.6,3.05,1.25,7.15.5,12.2-2.15a10.58,10.58,0,0,0,1.05-.55,16.523,16.523,0,0,1,14.85-.15l16.7,7.9L84.48,3.6l10.9,7.75.15-.55c0-.1,1.2-4.9,2-10.8h-.75c-.65,4.65-1.5,8.65-1.85,10.05L84.38,2.55l-.5-.35L82.63,15,66.93,7.6a17.612,17.612,0,0,0-7.6-1.75A16.992,16.992,0,0,0,51.38,7.8a9.916,9.916,0,0,1-1,.55c-4.85,2.6-8.75,3.3-11.55,2.15-3-1.25-4.35-4.1-5.25-6.85,1.85-.6,5.15-1.95,9-3.65H40.73a80.515,80.515,0,0,1-7.7,3.05Z" transform="translate(130.52 0.04)" fill="#38bfc3"/>
    <path id="Path_107" data-name="Path 107" d="M35.59,35.23l.3.2c.65.4,5.85,3.45,8.2,3.45a2.51,2.51,0,0,0,.6-.1l.15-.05,4.3-7.9,4.7,2.6.2-.2c.35-.4,3.5-3.95,3.2-6l-.05-.2-.25-.1a19.79,19.79,0,0,1-5.2-3.4l7.5-13.95L50.99,5.03l-.15-.1-20.95,7.5-.15.05-3.1,5.7,13.95,7.7Zm-7.9-17.3,2.6-4.8,20.5-7.35,7.45,4.1-7.4,13.8.2.2a20.423,20.423,0,0,0,5.4,3.65c0,1.4-1.85,3.85-2.8,4.95l-4.8-2.7-4.5,8.3c-1.3.25-5.25-1.7-7.7-3.15l5.05-9.3Z" transform="translate(106.56 19.76)" fill="#38bfc3"/>
    <path id="Path_108" data-name="Path 108" d="M41.84,6.22,28.39,10.97l8.35,4.65ZM30.19,11.17,40.24,7.62l-3.8,7Z" transform="translate(113.56 24.896)" fill="#38bfc3"/>
    <path id="Path_109" data-name="Path 109" d="M36.858,46.28c5.65,3.15,11.05,4.7,16,4.7a19.732,19.732,0,0,0,5.75-.8c5.25-1.55,9.5-5.15,12.55-10.85,8.8-16.3-3.65-28.8-12.4-33.65a21.409,21.409,0,0,0-16.7-1.65c-6.1,1.8-11.9,6.15-14.45,10.75C23.208,22.98,23.058,38.58,36.858,46.28Zm-8.55-31.1c2-3.7,7.15-8.35,14-10.4a23.274,23.274,0,0,1,6.35-.95,20.192,20.192,0,0,1,9.75,2.5c2.35,1.3,22.6,13.25,12.1,32.65-2.95,5.45-7.05,9-12.1,10.45-6.1,1.75-13.4.45-21.15-3.85C23.858,38.18,24.008,23.03,28.308,15.18Z" transform="translate(99.842 12.26)" fill="#38bfc3"/>
    <path id="Path_110" data-name="Path 110" d="M10.845,16.65a36.012,36.012,0,0,0,14.2,23.85,33.277,33.277,0,0,0,19.4,6.3,34.47,34.47,0,0,0,5.5-.45c18.2-3,35.95-17.95,32.85-36.85A67.676,67.676,0,0,0,80.545,0h-.8a67.422,67.422,0,0,1,2.3,9.6c3,18.45-14.4,33.05-32.25,35.95a32.157,32.157,0,0,1-24.35-5.65c-7.4-5.3-12.3-13.6-13.85-23.35A39.665,39.665,0,0,1,12.295,0h-.8A41.027,41.027,0,0,0,10.845,16.65Z" transform="translate(41.155 0.04)" fill="#38bfc3"/>
    <path id="Path_111" data-name="Path 111" d="M12.089,17.25a28.949,28.949,0,0,0,11.95,19.1,25.685,25.685,0,0,0,14.6,5.15,17.174,17.174,0,0,0,2.8-.2l.4-.05-.1-.4C40.439,36,37.289,15.6,34.989,0h-.75c2.3,15.55,5.3,35.1,6.7,40.6-5.15.7-11.25-1.1-16.45-4.85a28.3,28.3,0,0,1-11.65-18.6A39.693,39.693,0,0,1,13.789,0h-.9A41,41,0,0,0,12.089,17.25Z" transform="translate(46.111 0.04)" fill="#38bfc3"/>
    <path id="Path_112" data-name="Path 112" d="M23.95,39.8l.4-.05C32.85,38.35,47.5,25.3,44.85,9A43.9,43.9,0,0,0,42.3,0h-.8a41.933,41.933,0,0,1,2.6,9.1C46.65,25,32.05,37.35,24.6,38.9L18.85,0H18.1l5.8,39.4Z" transform="translate(72.4 0.04)" fill="#38bfc3"/>
    <path id="Path_113" data-name="Path 113" d="M19.83,13.6l.2.05h.4c4.2,0,8.85-1.55,9.35-4.15l.05-.2-.1-.15C28.63,7.9,14.68,2.3,13.08,1.65l-.6-.25.1.65C12.88,4.65,17.08,12,19.83,13.6Zm9.2-4c-.65,2.05-4.9,3.35-8.6,3.35h-.3c-2.3-1.4-5.9-7.5-6.7-10.25C19.18,4.95,27.68,8.55,29.03,9.6Z" transform="translate(49.92 5.64)" fill="#38bfc3"/>
    <path id="Path_114" data-name="Path 114" d="M19.24,12.15l-.1.2.1.15c.75,1.3,2.65,1.85,4.85,1.85a17.392,17.392,0,0,0,5.7-1.05l.15-.1C31.99,10.9,33.69,2.55,33.29,0h-.95C30.29,1.8,19.89,10.7,19.24,12.15ZM32.64.75c.1,2.9-1.45,9.8-3.15,11.9-3.5,1.25-8.1,1.4-9.45-.35C20.99,10.9,27.79,4.9,32.64.75Z" transform="translate(76.56 0.04)" fill="#38bfc3"/>
    <path id="Path_115" data-name="Path 115" d="M49.83,28.06a4.936,4.936,0,0,0-.6.45c.55,10.8.9,24.05.5,36.55a2.679,2.679,0,0,0,.55.25l-.25.7-.3-.15c-.2,5.45-.5,10.75-1.05,15.6l-.05.45.45-.05c1.9-.15,10.8-2.1,11.2-2.2l.3-.05-.05-.35c-.3-3.3-.45-7.75-.45-12.1h-.25l-.05-.75h.3c0-6.15.15-11.85.15-13.05l9.05-3.9a42.921,42.921,0,0,1,1.95,7.55l.1.65.5-.4a35.724,35.724,0,0,1,9.9-5.4l.4-.15-.2-.4c-3.05-5.65-7.35-14.35-11.55-22.8l-.75-1.5h-.45l-.1-.75h.15c-5.4-10.85-9.9-19.95-11.2-21.3l-.1-.1h-.15c-3.55.2-8.6,2.2-9.65,3.3l-.1.1.15,2.45c.25,3.95.7,9.85,1.05,16.9.15-.1.2-.15.25-.15ZM48.78,8.56c1.05-.9,5.55-2.7,8.85-2.95,1.5,1.8,6.85,12.7,12.1,23.2,4.1,8.25,8.3,16.75,11.35,22.45a34.591,34.591,0,0,0-9.2,5,46.667,46.667,0,0,0-1.9-7.1l.95-.4,1.75-7.2.05-.3-6.55-2.6-.1.45c0,.05-.05.15-.05.2a108.32,108.32,0,0,0-7.3-13.3l-.75-1.1.95,22,.55-.4c.65-.5,6.2-4.5,7.2-6.8l5.2,2.05-1.6,6.5L59.73,52.81l-.2.1v.25c0,.15-.55,17.05.25,25.9-1.55.35-8.05,1.75-10.3,2.05,2.65-24,.3-57.7-.55-70.4ZM65.53,40.11a38.134,38.134,0,0,1-5.95,5.35l-.75-17.85A119.328,119.328,0,0,1,65.53,40.11Z" transform="translate(192.12 19.48)" fill="#38bfc3"/>
    <path id="Path_116" data-name="Path 116" d="M57.118,47.78l.3.15.25-.7a2.68,2.68,0,0,1-.55-.25c-5.15-2.15-8.35-6.9-9.8-14.5-2.3-12.1,6.8-20.1,9.3-22a4.937,4.937,0,0,1,.6-.45l-.4-.65a2.6,2.6,0,0,0-.25.15c-1.65,1.2-12.55,9.7-10,23.05C48.118,40.63,51.568,45.63,57.118,47.78Z" transform="translate(184.732 37.516)" fill="#38bfc3"/>
    <path id="Path_117" data-name="Path 117" d="M59.74,9.956h.45c6.05-.4,13.3,4.85,15.2,14.75,1.85,9.7-3.55,20.95-17.4,23.65a57.745,57.745,0,0,1-7.3,1h-.3l.05.75h.25a59.738,59.738,0,0,0,7.45-1.05c14.35-2.8,19.9-14.45,18-24.55-2-10.45-9.85-15.95-16.3-15.35h-.15Z" transform="translate(201.56 36.442)" fill="#38bfc3"/>
    <path id="Path_118" data-name="Path 118" d="M42.51,49.84c-.7-8.25,1.45-36.65,1.45-36.95v-.25l-9.4-4.65L3.41,31.44l-.5.35,10.75,5.35.2.1,18.6-13.2a103.263,103.263,0,0,1-2.85,19.85l-.1.3,13,6.25Zm-12.05-6a108.217,108.217,0,0,0,2.85-20.5v-.75l-19.5,13.8-9.45-4.7,30.3-22.8,8.55,4.25c-.2,2.8-2,27.6-1.5,36.15Z" transform="translate(11.64 31.962)" fill="#38bfc3"/>
    <path id="Path_119" data-name="Path 119" d="M40.827,19.85l.35-1.9-1.05,1.6c-3.9,6.05-.4,17,2.95,20.35l.1.1h.15a23.153,23.153,0,0,0,6.2-.75c-2.95,2.15-5.95,4.1-7.05,4.4a24.776,24.776,0,0,1-6.7-14.8l-.15-2.55-.55,2.5c-1.55,6.85,4.65,17.65,6.6,19.55l.15.15.2-.05c2.7-.85,7.1-3.65,9.5-5.4a18.923,18.923,0,0,0-2.45,8.35v.1l.05.1c1.8,3.25,7.7,10.9,23.5,12.1l.15-.75c-9.8-2.75-17.05-8.25-19.95-12.45,0-1.65,1.15-3.75,2.2-5.2a14.81,14.81,0,0,0-.15,4.6l.05.15c3.5,5.15,9.3,7.85,16.7,7.85h.3l.05-.75c-5.7-.9-12.45-6.15-13.6-8.15a11.476,11.476,0,0,1,1.75-5.45c2.8,6.4,9.35,11,15.6,11h.9l.1-.25c2.6-6.9-1.65-14.65-7.1-18.65a11.191,11.191,0,0,1,5.7-.55c1.7,1.55,5.35,9.35,5,15.15l.75.1c1.75-7.5.35-13.85-3.95-18.5l-.1-.1a13.715,13.715,0,0,0-4.5-.85c1.6-.7,3.85-1.4,5.45-1.05,3.5,3.75,7.2,12.1,7.75,22.35l.75.05c2.3-15.85-3.85-23.3-6.6-25.8l-.1-.05h-.1a18.647,18.647,0,0,0-8.6.6c2.15-2,5.9-5.75,7.25-8.25l.1-.2-.1-.15c-1.4-2.3-10.5-10.75-17.35-10.75h-.1l-2.5.05,2.4.7c7.35,2.15,11.6,7.85,12.9,9.8-.6,1.1-3.25,3.75-5.7,5.95a23.5,23.5,0,0,0,2-5.9V18.1l-.1-.1c-2.55-4.05-12.35-9.85-19.05-7.25l-1.75.65,1.85.05c7.15.2,13.3,5.25,14.85,7.45a22.64,22.64,0,0,1-5.45,7.6,5.5,5.5,0,0,0-2.75-3.6c-1.65-.85-3.5-.55-5.25.85a4.783,4.783,0,0,0-1.9,5.05,5.46,5.46,0,0,0,2.85,3.45c-2.05,1.85-7.2,3.7-8.5,3.8C43.077,34.15,39.527,26.85,40.827,19.85Zm3.6,16.9.1.1h.2c1.5,0,7.8-2.3,9.6-4.5l.4-.5-.65-.1a4.466,4.466,0,0,1-2.85-3.1,3.883,3.883,0,0,1,1.65-4.25c1.9-1.55,3.45-1.25,4.4-.75a4.564,4.564,0,0,1,2.4,3.6l-.05.7.6-.3c2.5-1.35,6.2-7.3,6.4-8.6V18.9l-.05-.1c-1.3-2.05-6.75-6.7-13.35-7.7,6.1-.8,13.75,3.9,16,7.35a23.972,23.972,0,0,1-2.95,7.4l-1.45,2.25,2.05-1.75c1.95-1.65,7.1-6.35,7.65-7.9l.05-.15-.1-.15a25.711,25.711,0,0,0-9.85-8.9c5.6,1.95,11.65,7.55,13,9.5-1.95,3.35-7.8,8.65-8.5,9.2l-2.55,1.95,2.95-1.35a17.874,17.874,0,0,1,9.95-1.3c2.5,2.25,7.55,8.5,6.7,21.35-1.15-8.75-4.55-15.8-7.7-19.15l-.05-.1-.1-.05c-2.7-.65-6.7,1.3-7.65,1.9l-1.5.95,1.75-.25a13.81,13.81,0,0,1,5.8.7c3.45,3.75,4.9,8.65,4.25,14.45-.8-5.45-3.7-11.2-5.15-12.45l-.15-.15h-.1c-2.35-.35-5.7-.05-6.8,1l-.35.3.4.25c5.35,3.7,9.7,11.15,7.35,17.85h-.35c-6.1,0-12.55-4.65-15.1-11.05l-.15-.45-.4.25c-1.25.85-2.25,4.1-2.4,6.5v.1l.05.1c.9,1.7,5.75,5.8,10.85,7.75-5.65-.65-10.1-3.15-12.95-7.3a14.282,14.282,0,0,1,.55-5.85l.6-1.65-1.2,1.25c-.75.8-3.55,4.35-3.45,7.15v.1l.05.1c2.6,3.85,8.65,8.65,16.9,11.7-12.55-1.95-17.55-8.3-19.2-11.2a18.088,18.088,0,0,1,3.45-9.6l1.95-2.7-2.5,2.15c-.85.75-7.2,5.25-10.7,6.4-1.6-1.75-5.7-8.9-6.35-14.85a26.238,26.238,0,0,0,6.45,11.55l.15.15.2-.05c1.9-.25,8.95-5.65,9.25-5.85l1.95-1.5-2.3.85a25.021,25.021,0,0,1-7.3,1.35h-.5c-2.8-3-5.7-11.45-3.7-17.3C39.427,28.75,42.727,35.05,44.427,36.75Z" transform="translate(139.323 30.6)" fill="#38bfc3"/>
    <path id="Path_120" data-name="Path 120" d="M52.956,48.63c-1.05,7.4.3,13.45,4.05,18.1,4.75,5.85,13.5,9.35,25.25,10.05,1.3.1,2.6.1,3.85.1,18.35,0,28.15-8.9,29.9-27.05a28.147,28.147,0,0,0-6.7-21.6,33.24,33.24,0,0,0-23-11.45h0c-.7-.05-1.4-.05-2.05-.05C64.606,16.68,55.106,33.68,52.956,48.63Zm31.3-31.2c.65,0,1.3,0,2,.05a32.647,32.647,0,0,1,22.5,11.2,27.4,27.4,0,0,1,6.5,21.05c-1.7,17.7-11.3,26.4-29.2,26.4-1.2,0-2.45-.05-3.75-.1-11.55-.7-20.1-4.1-24.7-9.75-3.6-4.45-4.9-10.35-3.9-17.5C55.806,34.08,65.106,17.43,84.256,17.43Z" transform="translate(210.444 66.87)" fill="#38bfc3"/>
    <path id="Path_121" data-name="Path 121" d="M70.79,51.555c.55,0,1.05,0,1.6-.05,7.85-.4,17.25-3.1,17.7-13.6.4-10.7-5.7-17.9-15.45-18.4a19.527,19.527,0,0,0-14.3,5.05,15.914,15.914,0,0,0-4.9,11.8c0,5.05,1.35,8.9,4.05,11.45C62.14,50.3,65.89,51.555,70.79,51.555Zm-9.9-26.4a18.669,18.669,0,0,1,12.75-4.9h1c9.35.45,15.1,7.4,14.75,17.6-.4,9.95-9.45,12.5-17,12.9-5.5.3-9.6-.85-12.35-3.45-2.55-2.4-3.85-6.05-3.85-10.9A15.16,15.16,0,0,1,60.89,25.155Z" transform="translate(221.76 77.848)" fill="#38bfc3"/>
    <path id="Path_122" data-name="Path 122" d="M60.92,47.16l9.55-7.95,10.85,6.65L77.27,35.61l8.25-6.55-10.9-.15-2.2-9.15-5.3,9.15-11.2,1.3,7.75,6.35Zm-3.15-16.4,9.6-1.1h.2l4.55-7.85,1.9,7.85,9.4.15-7.05,5.55,3.45,8.65-9.2-5.6-.25-.15-8.15,6.8,2.25-8.5.05-.25Z" transform="translate(223.68 78.994)" fill="#38bfc3"/>
    <path id="Path_123" data-name="Path 123" d="M73.98,42.58l-.1.1c-2.9,5.15-12.5,18.7-14.9,21.75l-.2.3.25.25c2.55,2.2,14.5,7.15,27.15,12.4,12.8,5.3,26,10.8,29.75,13.55l.35.25.2-.35c4-7.1,31.65-46.05,33.6-48.4l.3-.4-.45-.2c-5.2-2.3-20.2-10.5-24.45-15.35l-.15-.15h-.2c-9.85,1.1-46.15,13.5-51.1,16.25Zm51.05-15.5c4.45,4.9,18.5,12.6,24.15,15.2-3.55,4.6-28.7,40.1-33.2,47.75-4.2-2.85-17.05-8.2-29.55-13.35-11.65-4.8-23.65-9.8-26.65-12.05,2.75-3.55,11.85-16.4,14.7-21.45C79.73,40.33,115.03,28.28,125.03,27.08Z" transform="translate(235.12 105.21)" fill="#38bfc3"/>
    <path id="Path_124" data-name="Path 124" d="M80.23,33.89l.4.25.15-.45a7.475,7.475,0,0,0-.85-5.4l-.15-.2-12.2,3.85h2.35C70.03,31.94,77.08,31.99,80.23,33.89Zm-.75-4.95a7.024,7.024,0,0,1,.7,4.1,23.572,23.572,0,0,0-8.05-1.75Z" transform="translate(270.32 112.291)" fill="#38bfc3"/>
    <path id="Path_125" data-name="Path 125" d="M75.439,49.1c1.7-.6,3.6-1.25,5.65-1.85,19.7-6.2,22.85,1.9,24.75,6.75l.3.75.15.4.4-.25c2.55-1.65,12.7-13.75,12.9-17.15V37.5l-.2-.1c-1.55-.85-14.15-7.8-16.65-9.35l-.5-.3-.05.6a22.476,22.476,0,0,0,1.55,9.65c-1.2.6-5.75,2.75-8.15,3.95-12.3-7.55-22.2-2.55-25.95-.65l-.55.25c-2.5,1.2-4.05,2.65-4.65,4.25a4.237,4.237,0,0,0,.15,3.35C66.089,52.35,70.039,51,75.439,49.1Zm-10.25-2.95c.55-1.45,1.95-2.75,4.25-3.85l.55-.3c3.65-1.85,13.35-6.75,25.4.7l.2.1.2-.1c2.75-1.35,8.65-4.2,8.65-4.2l.3-.15-.1-.3a23.045,23.045,0,0,1-1.7-9.05c3.25,1.9,13.8,7.75,15.9,8.95-.6,3.15-9.1,13.7-12.15,16.05l-.1-.25c-1.4-3.55-3.65-9.45-13.35-9.45a42.116,42.116,0,0,0-12.35,2.25c-2.05.6-4,1.3-5.7,1.85-5.2,1.8-8.7,3.05-9.9.55A3.886,3.886,0,0,1,65.189,46.15Z" transform="translate(256.661 110.92)" fill="#38bfc3"/>
    <path id="Path_126" data-name="Path 126" d="M60.82,48.21c1.7,1.7,4.8,2.95,8.4,4.4,1,.4,2.05.85,3.1,1.3l1.05.45-.65-1c-3.05-5.05-5.9-12.8,3.8-22.25l1.2-1.2-1.6.55c-5.9,2.05-8.3,5.95-12.35,12.4-.9,1.45-1.9,3.05-3.05,4.85l-.15.25Zm3.65-4.9c3.65-5.85,5.85-9.4,10.3-11.45-8.65,9.4-5.25,17.3-3.25,20.9-.7-.3-1.4-.55-2.05-.85-3.35-1.35-6.25-2.55-7.95-4.05C62.62,46.26,63.57,44.71,64.47,43.31Z" transform="translate(242.28 119.53)" fill="#38bfc3"/>
    <path id="Path_127" data-name="Path 127" d="M68.79,43.57l-1.4.25,1.25.45c1.85.7,11.3,4.05,11.4,4.1l.25.1.15-.15c.05-.05,5.25-6,7.7-11.75l.75-1.8-1.35,1.35C84.49,39.17,77.84,41.82,68.79,43.57Zm11.25,4.05c-1.25-.45-7.1-2.5-9.9-3.55,4.9-1.05,12.3-3,16.6-6.25A55.92,55.92,0,0,1,80.04,47.62Z" transform="translate(269.56 138.97)" fill="#38bfc3"/>
    <path id="Path_128" data-name="Path 128" d="M74.37,48.73l.15-.35c1.55-3.7,7-7.45,13.6-7.45h.4a5.615,5.615,0,0,0,5.3-2.9,3.32,3.32,0,0,0-.25-3.65c-.65-.8-2.3-2-6.3-1.05-3.9.95-7,3.1-10,5.2-3.65,2.55-7.15,4.9-11.8,5.25l-1.45.1,10,4.65Zm-7.55-4.35c4.25-.65,7.6-3,10.85-5.2,2.95-2.05,6-4.15,9.8-5.1,2.6-.65,4.6-.35,5.5.75a2.637,2.637,0,0,1,.15,2.85,4.759,4.759,0,0,1-4.45,2.45h-.55c-6.7,0-12.3,3.75-14.15,7.6Z" transform="translate(256.08 131.81)" fill="#38bfc3"/>
    <path id="Path_129" data-name="Path 129" d="M105.268,0h-.75c.85,6.5-.95,16.05-14.85,24.4-.1-9.3-1-19.45-2.55-24.4h-1.05l-5.75,4.05L79.918,0h-.75l.5,4.75.05.65,6.8-4.75c2.35,8.15,3.2,29,1.65,38.45l-7.5-24.2-.15-.5-5.5,3.9L72.818,0h-.75l2.25,19,.05.65,5.7-4,3.45,11.05c-12,2.75-25.9.45-30.1-11-2-5.45-1.05-10.9,1.2-15.65h-.8c-2.25,4.85-3.15,10.4-1.1,15.95,3.3,8.95,12.3,12.55,21.8,12.55a41.049,41.049,0,0,0,9.25-1.1l4.55,14.65.3-1.35c.8-3.45,1.1-9.2,1.1-15.4C104.218,16.7,106.168,6.75,105.268,0Z" transform="translate(206.282 0.04)" fill="#38bfc3"/>
    <path id="Path_130" data-name="Path 130" d="M66.268,13.74c.7.4,2.5,1.5,3.1,1.9l-.6,13.95,6.65-1.15-.55,6.85-.1.5,12.85-1.8c2.1,2.6,5.25,5.8,9.6,5.8a8.544,8.544,0,0,0,1.55-.15l.75-.1-.55-.5a82.873,82.873,0,0,1-8.65-10.3l-.15-.2-.25.05c-.55.1-7.75,1.1-9.75,1.4l1.15-7.8-7.55,2.05c.15-2,.6-9.3.8-11.55v-.15l-.1-.1a25.525,25.525,0,0,0-6-5.5,23.1,23.1,0,0,1-3.85-3.25l-.3-.35-.15.3c-.85,1-1.2,3.15-.85,5.15A6.705,6.705,0,0,0,66.268,13.74Zm-1.8-9.25a28.531,28.531,0,0,0,3.65,3,26.784,26.784,0,0,1,5.8,5.2c-.25,2.8-.85,11.85-.85,11.95l-.05.5,7.45-2.05-1.15,7.7.5-.05c.35-.05,8.45-1.2,10-1.4a80.854,80.854,0,0,0,8.05,9.65c-3.5.25-6.6-1.55-9.85-5.65l-.15-.15-12.35,1.7.6-7.35-6.65,1.15.6-13.45-.15-.1s-2.45-1.5-3.3-2a6.318,6.318,0,0,1-2.6-4.4A7.76,7.76,0,0,1,64.468,4.49Z" transform="translate(252.732 13.4)" fill="#38bfc3"/>
    <path id="Path_131" data-name="Path 131" d="M74.86,9.21c-.6-.55-1-1-1.15-1.1l-.2-.2-.25.15c-.6.3-3.05,1.2-4.05,1.6l-.4.15.2.35a23.84,23.84,0,0,0,2.5,3.65l.5.65c1.65,2.2,4.85,4.45,7.85,4.6h.25a4.349,4.349,0,0,0,3.35-1.45l.3-.35-.4-.25C82.06,16.36,77.01,11.36,74.86,9.21Zm5.05,9.1c-2.7-.1-5.8-2.3-7.3-4.3l-.5-.65a34.332,34.332,0,0,1-2.25-3.15c1.4-.5,2.85-1.05,3.55-1.4l.9.9a112.134,112.134,0,0,0,8.3,7.75A3.407,3.407,0,0,1,79.91,18.31Z" transform="translate(275.24 31.649)" fill="#38bfc3"/>
    <path id="Path_132" data-name="Path 132" d="M66.047,10.16c.4.3.8.65,1.25,1.05a52.794,52.794,0,0,1,5.3,4.8l.3.35.3-.35c.75-.85,2.7-4.05-2.6-9.1l-.3-.3c-1.3-1.25-3.25-3.1-3.85-4.35l-.3-.5-.35.35c-1.6,1.6-2.3,2.9-2.2,4.25C63.6,7.66,64.447,8.91,66.047,10.16Zm-.1-7.15a28.685,28.685,0,0,0,3.75,4.1l.3.3c4.25,4.05,3.5,6.65,2.85,7.75a46.763,46.763,0,0,0-5.1-4.55c-.45-.35-.85-.75-1.25-1.05-1.45-1.15-2.15-2.2-2.2-3.25C64.247,5.36,64.747,4.31,65.947,3.01Z" transform="translate(254.352 7.08)" fill="#38bfc3"/>
    <path id="Path_133" data-name="Path 133" d="M68.67,12.62a4.98,4.98,0,0,1,.55.5,10.732,10.732,0,0,1,3.55,8.7l-.7,11.5-.1.5,7.65-2.25-2,8.35.55-.1c.1,0,8.45-1.25,13.85-3.75.9.85,1.85,1.8,2.75,2.65,3.7,3.75,7.55,7.6,12.3,7.6a10.735,10.735,0,0,0,5.85-1.9l.35-.2-.2-.3c-1.3-1.9-4.3-4.6-7.45-7.5-2.65-2.4-5.35-4.9-7.35-7.1a3.479,3.479,0,0,0-4.4-.6,15.318,15.318,0,0,1-7.25,2h-.1l3.95-10.35-.8.35c-.3.15-7.25,3.1-9.45,4.2a38.624,38.624,0,0,1,.7-8.05,5.572,5.572,0,0,0-1.65-5.15l-.9-.9c-3.5-3.4-8.75-8.5-10.2-10.35l-.25-.3-.3.25c-1.55,1.35-3.2,3-3.2,5.35C64.42,7.97,65.82,10.22,68.67,12.62Zm-.9-11.35c1.75,2.1,6.7,6.9,10.05,10.1l.9.9a4.869,4.869,0,0,1,1.45,4.45c-.55,3-1,6.9-.65,8.85l.1.55.45-.3c.95-.6,6.85-3.15,9.05-4.1l-3.5,9.15-.2.45.5.05a15.511,15.511,0,0,0,8.25-2.1,2.783,2.783,0,0,1,3.5.45,102.546,102.546,0,0,0,7.4,7.15,67.176,67.176,0,0,1,7.1,7.05c-7.05,4.15-11.85-.7-16.9-5.8-.95-.85-1.95-1.85-2.9-2.8l-.2-.15-.25.1c-4.5,2.15-11.35,3.4-13.3,3.75l2-8.55-7.8,2.35.65-10.95a11.42,11.42,0,0,0-3.75-9.3,4.521,4.521,0,0,0-.55-.5c-2.65-2.2-3.95-4.3-3.95-6.25C65.17,3.87,66.47,2.42,67.77,1.27Z" transform="translate(257.68 0.72)" fill="#38bfc3"/>
    <g id="Group_2" data-name="Group 2" transform="translate(0.05 142.053)">
      <path id="Path_134" data-name="Path 134" d="M2.83,40h0Z" transform="translate(11.27 17.837)" fill="#38bfc3"/>
      <path id="Path_135" data-name="Path 135" d="M3.86,35.13.31,59.48h.75l3.15-21.6a196.352,196.352,0,0,1,7,21.6h.75a181.554,181.554,0,0,0-7.6-23.15Z" transform="translate(1.19 -1.643)" fill="#38bfc3"/>
      <path id="Path_136" data-name="Path 136" d="M22.66,66.82c-5.15-18.55-9.85-35.45-11.5-38l-.1-.15h-.15a34.761,34.761,0,0,0-10.9.5v.75a34.312,34.312,0,0,1,10.6-.55c1.8,3.1,6.85,21.45,12.2,40.85,1.5,5.4,3,10.8,4.45,16.05h.8c-1.5-5.3-3-10.8-4.5-16.25-.2-.8-.45-1.6-.65-2.35,7.9.85,15.85,7.7,19.05,18.65h.75C39.41,74.77,30.96,67.57,22.66,66.82Z" transform="translate(-0.01 -28.433)" fill="#38bfc3"/>
    </g>
    <path id="Path_137" data-name="Path 137" d="M63.03,38.88l-.7.3a126.232,126.232,0,0,1-14.7,5.3h2.6a113.147,113.147,0,0,0,11.75-4.3,12.874,12.874,0,0,1-2.15,4.3h.9a14.126,14.126,0,0,0,2.15-4.85Z" transform="translate(190.52 155.41)" fill="#38bfc3"/>
    <path id="Path_138" data-name="Path 138" d="M66.08,36.11l-.35.3c-1.9,1.6-12.25,6.15-16.65,8.1-1.1.5-1.85.8-2.1.95l-.3.1v.25c.05,1.05,0,4.7-.1,6.9v.45l.45-.05a48.055,48.055,0,0,0,8-1.95c4.1-1.15,9.25-4.5,11.2-8.75a6.621,6.621,0,0,0,.05-5.9Zm-.55,6c-1.8,4-6.85,7.25-10.7,8.35a57.772,57.772,0,0,1-7.45,1.9c.1-2.1.15-5.05.1-6.3.35-.15,1-.45,1.85-.8,4.55-2,13.8-6.05,16.45-7.9A5.886,5.886,0,0,1,65.53,42.11Z" transform="translate(186.32 144.33)" fill="#38bfc3"/>
    <path id="Path_139" data-name="Path 139" d="M91.84,58.46c1.85-.9,3.8-1.75,5.7-2.55,10.4-4.5,21.2-9.2,18.8-23.05l-.05-.4-.4.1c-3.5.8-9.25,3.6-15.3,6.6-5.05,2.45-10.25,5-14.65,6.65a5.4,5.4,0,0,0-3.4,5.8,24.234,24.234,0,0,1-1.5,12.3L69.19,52.96l-.65-.6v.85c0,.55.2,13.15.55,16.5-2.6-.7-7.1-3-11.5-5.85a8.418,8.418,0,0,0-8.2-.5c-6.3,2.85-11.35,5.15-15.15,6.8h1.85c3.6-1.6,8.1-3.65,13.55-6.15a7.712,7.712,0,0,1,7.5.5,55.884,55.884,0,0,0,11.1,5.7h1.6v-.05c-.35-1.75-.55-12.85-.6-16.05l11.6,10.7.35.35.2-.45a24.427,24.427,0,0,0,1.8-13.15,4.608,4.608,0,0,1,2.9-5c4.4-1.65,9.65-4.2,14.7-6.65,5.8-2.85,11.3-5.55,14.75-6.45,2.05,12.95-7.9,17.25-18.4,21.85-1.95.85-4,1.75-5.95,2.7l-.2.1v.25a68.769,68.769,0,0,1-.7,11.9h.75A63.867,63.867,0,0,0,91.84,58.46Z" transform="translate(136.96 129.73)" fill="#38bfc3"/>
    <path id="Path_140" data-name="Path 140" d="M65.58,40.378c-7-5.05-15.75-6.75-26.05-5.1-14.95,2.45-25.55,12.55-29,26h.8c3.45-13.1,13.8-22.9,28.35-25.3,10.1-1.65,18.65,0,25.5,4.95,6.05,4.35,10.75,11.4,13.6,20.35h.8C76.63,52.178,71.83,44.878,65.58,40.378Z" transform="translate(42.12 138.562)" fill="#38bfc3"/>
    <path id="Path_141" data-name="Path 141" d="M30.92,36.46l-.05-.4-.4.1c-9.8,2.15-16,10.1-18.65,19.6h.75c2.55-9.05,8.45-16.6,17.65-18.8.2,1.35.65,4.25,1.2,8.15.45,3.1,1,6.75,1.55,10.65h.75c-.6-4-1.15-7.75-1.6-10.75C31.57,40.66,31.12,37.51,30.92,36.46Z" transform="translate(47.28 144.13)" fill="#38bfc3"/>
    <path id="Path_142" data-name="Path 142" d="M31.88,39.8c-4.6-3.3-9.45-4.65-14.05-3.9l-.35.05,3.1,21.25h.75l-3-20.6c4.3-.6,8.85.7,13.1,3.8,5.25,3.8,9.7,9.9,12.5,16.8h.8C41.93,50.1,37.33,43.751,31.88,39.8Z" transform="translate(69.92 142.689)" fill="#38bfc3"/>
    <path id="Path_143" data-name="Path 143" d="M22.63,39.86l-.5.4c-.05.05-.25.2-.35.3h.95v-.05Z" transform="translate(87.12 159.33)" fill="#38bfc3"/>
    <path id="Path_144" data-name="Path 144" d="M127.932,34.34a8.587,8.587,0,0,1-6.45-6.7l-.1-.6-.45.35c-4.95,3.65-20.45,8.75-25.55,2.9a5.527,5.527,0,0,1-1.45-4.65c.85-5.15,8.6-9.95,10.95-11.35l1.05-.6-1.25-.1c-14.1-1-26.4,2.65-32.9,9.7-4.8,5.2-6.55,12.15-5.25,20.7,2.3,12.35,13.4,19.35,17.65,20.2l.65.15-.25-.65a6.755,6.755,0,0,1,.65-6.65,6.3,6.3,0,0,1,5.5-2.5c4.55.3,8.55,4.95,9.4,8.1l.2.65.45-.5c1.95-2.05,3.95-2.9,6.05-2.5,4.05.8,8.1,6.2,12.05,16.15l.2.5.4-.4c3.05-2.85,10.25-8.85,16-8.9v-.75c-5.6.05-12.2,5.2-16.1,8.8-3.95-9.85-8.15-15.3-12.4-16.1-2.2-.4-4.3.4-6.3,2.3-1.25-3.35-5.3-7.75-9.9-8.05h-.5a7.059,7.059,0,0,0-5.7,2.8,7.454,7.454,0,0,0-.95,6.7c-4.45-1.35-14.25-8.05-16.4-19.4-1.25-8.3.45-15.05,5.05-20.05,6.15-6.65,17.7-10.2,31.05-9.55-3.45,2.1-9.45,6.45-10.25,11.2a6.177,6.177,0,0,0,1.6,5.25c5.3,6.1,20.45,1.35,26.1-2.45a9.322,9.322,0,0,0,6.85,6.7,12.248,12.248,0,0,0,7.8-.6v-.85A10.74,10.74,0,0,1,127.932,34.34Z" transform="translate(264.468 53.676)" fill="#38bfc3"/>
    <path id="Path_145" data-name="Path 145" d="M85.87,38.4c-2,8.8-4.2,17.35-6.6,25.15l-.15.45.45.05c1.05.1,3.5.15,6.3.15,5.4,0,12.05-.15,12.5-.15h.35l.05-.35c.55-5.5,1.75-13,3.1-20.15-.1,0-.25-.05-.35-.05l.1-.75c.15,0,.25.05.4.05,1.9-10.3,3.95-19.75,4.3-21.35l.2-.1V20.6l-.9.2-.05.2c-.05.3-6.15,27.7-7.6,42.25-2.15.05-14.35.3-17.9.05C85.97,44.35,90.52,21.15,93.97,0h-.75c-2,12.25-4.4,25.2-7.2,37.6-8-5.15-11.9-14-11.9-27.15A32.7,32.7,0,0,1,75.82,0h-.8a34.169,34.169,0,0,0-1.65,10.45C73.37,24,77.47,33.15,85.87,38.4Z" transform="translate(293.48 0.04)" fill="#38bfc3"/>
    <path id="Path_146" data-name="Path 146" d="M79.09,8.55l-.1.75c.1,0,.25.05.35.05,1.45.2,3.05.35,4.7.45V9c-1.6-.1-3.15-.25-4.55-.45Z" transform="translate(315.96 34.208)" fill="#38bfc3"/>
    <path id="Path_147" data-name="Path 147" d="M100.2,30.88a17.9,17.9,0,0,1,5-1.55v-.75a18.3,18.3,0,0,0-5.6,1.75l-.15.1-.4,3.35c-.8,6.55-1.95,16.5-3.6,28.2-1.35.6-16.65,7.8-21.75,23.7h.8c4.75-14.35,18.05-21.45,20.85-22.8-1,7.1-2.15,14.8-3.45,22.8h.75c3.55-21.65,5.85-41.15,7.15-51.8Z" transform="translate(294.8 114.21)" fill="#38bfc3"/>
    <path id="Path_148" data-name="Path 148" d="M59.03,39.88l-.85.6h1.05c0-.05,0-.1-.05-.1Z" transform="translate(232.72 159.41)" fill="#38bfc3"/>
    <path id="Path_149" data-name="Path 149" d="M71,59.01l-.15-.75c.1-.05.25,0,.35-.05l-.3-2.9-6.8,5.2L53.95,30.56l-.7.2a279.184,279.184,0,0,1,4.5,34.05c.05-.05.1-.05.15-.1l.45.6a3.5,3.5,0,0,0-.5.4c.2,3.4.25,6.65.15,9.7l-.05.8,6.65-4.95.75,6.5h.75l-.85-7.2-.05-.65-6.45,4.75c.4-13-2.3-30.4-3.8-38.95l8.8,26,6.6-5,2.15,21h.75l-1.9-18.75A.976.976,0,0,1,71,59.01Z" transform="translate(213 122.13)" fill="#38bfc3"/>
    <path id="Path_150" data-name="Path 150" d="M82.47,49.088c-3.65-7.5-15.45-14.6-25.35-12.75a.851.851,0,0,0-.35.05l.15.75a.634.634,0,0,0,.3-.05c9.4-1.8,21.1,5.2,24.6,12.35a19.982,19.982,0,0,1,1.9,6.45h.75A21.387,21.387,0,0,0,82.47,49.088Z" transform="translate(227.08 144.052)" fill="#38bfc3"/>
    <path id="Path_151" data-name="Path 151" d="M62.8,38.4c.15-.15.35-.25.5-.4l-.45-.6c-.05.05-.1.05-.15.1A33.8,33.8,0,0,0,52,50.4h.8A34.809,34.809,0,0,1,62.8,38.4Z" transform="translate(208 149.49)" fill="#38bfc3"/>
    <path id="Path_152" data-name="Path 152" d="M58.184,19.09l.35-.15a43.838,43.838,0,0,1,6.45-.25c-2.1,3.55-1,8.75,1.55,11.5a20.722,20.722,0,0,1-5.7.25h-.2l-.15.1c-1.05,1.3-.3,4.45,1,6.3l.15.2.25-.05c3.15-.45,24.9-3,30.95-3.15h.1l.1-.05a3.51,3.51,0,0,0,1.2-3,3.891,3.891,0,0,0-1.85-3.3l-.15-.1-.15.05c-2.1.85-5.95,1-7.8,1.05a7.847,7.847,0,0,0,2.3-5.6,10.04,10.04,0,0,0-2.4-6.8c2.45-.35,6.95-.7,7-.7h.1l.1-.05a1.226,1.226,0,0,0,.35-.85,7.043,7.043,0,0,0-2.1-4.8l-.15-.1-.35.05c-3.85.95-10.05,1.2-16.05,1.5-6.45.25-12.55.55-15.45,1.65l-.25.1v.25a19.707,19.707,0,0,0,.65,5.65Zm14.95-7.25c5.95-.25,12.05-.5,16-1.45a6.534,6.534,0,0,1,1.7,4.35c-1,.1-5.75.5-7.65.85l-.85.15.7.5c1.6,1.15,2.75,4.05,2.7,6.7a6.7,6.7,0,0,1-2.8,5.65l-.95.65h1.2c.25,0,5.95.05,8.95-1.05a3.037,3.037,0,0,1,1.3,2.6,3.105,3.105,0,0,1-.75,2.3c-6.1.15-26.85,2.6-30.7,3.1-1.05-1.65-1.55-4.05-1-5.05a20.392,20.392,0,0,0,6.4-.45l.65-.2-.5-.45c-2.7-2.45-4-8.15-1.55-11.55l.4-.55-.7-.05a49.543,49.543,0,0,0-7,.2,19.856,19.856,0,0,1-.55-4.8C61.034,12.39,66.934,12.14,73.134,11.84Z" transform="translate(229.516 38.358)" fill="#38bfc3"/>
    <path id="Path_153" data-name="Path 153" d="M65.92,23.38h.5a7.257,7.257,0,0,0,4.85-2.55,5.707,5.707,0,0,0,1.35-4.15,6.082,6.082,0,0,0-6.3-5.75,3.784,3.784,0,0,0-.75.05h0c-5.6.5-5.9,5.75-5.9,6.85a6.051,6.051,0,0,0,2.15,4A6.445,6.445,0,0,0,65.92,23.38Zm-.3-11.75c.2,0,.45-.05.65-.05a5.376,5.376,0,0,1,5.6,5.1,4.789,4.789,0,0,1-1.2,3.6,6.359,6.359,0,0,1-4.35,2.3,5.387,5.387,0,0,1-4.05-1.4,5.492,5.492,0,0,1-1.9-3.45C60.42,16.43,60.77,12.08,65.62,11.63Z" transform="translate(238.68 43.716)" fill="#38bfc3"/>
  </g>
</svg>
