<?xml version="1.0" encoding="utf-8"?>
<!-- Generator: Adobe Illustrator 25.0.1, SVG Export Plug-In . SVG Version: 6.00 Build 0)  -->
<svg version="1.1" id="rocket" xmlns="http://www.w3.org/2000/svg" xmlns:xlink="http://www.w3.org/1999/xlink" x="0px" y="0px"
	 viewBox="0 0 150 150" style="enable-background:new 0 0 150 150;" xml:space="preserve">
<style type="text/css">
	.st0{fill:url(#SVGID_1_);}
</style>
<linearGradient id="SVGID_1_" gradientUnits="userSpaceOnUse" x1="2.8843" y1="4.5723" x2="147.3277" y2="149.2238" gradientTransform="matrix(1 0 0 -1 0 152)">
	<stop  offset="0" style="stop-color:#3298CB"/>
	<stop  offset="1" style="stop-color:#38BFC3"/>
</linearGradient>
<path class="st0" d="M4.2,77.5c-2-1.8-2.1-4.9-0.3-6.9c6-6.8,19.6-20.3,33.9-21.7C32.8,57,26.1,67.6,14.7,84
	c-0.6,0.9-0.9,1.6-1.4,2.7L4.2,77.5z M44.7,130c-1.7,0.8-5.1,2.1-6.8,2.7c-5.9,2-11.7,3.2-18,4.1l-5.7,0.9c-1.1,0.2-2.1-0.8-2-1.8
	c0.5-5.9,1.5-11.7,2.9-17.6c0.8-2.9,1.8-5.9,2.7-8.6c0.6-1.7,1.1-3,1.8-4.4c0.5-0.5,0.3-0.9-0.2-1.4s-1.1-0.5-1.7-0.2
	c-2.7,2.1-5.1,4.4-7.1,7.1c-3.5,4.2-6,9.3-7.7,14.4c-1.8,5.7-2.9,11.4-3,17.5c-0.2,0.9-0.2,1.7,0,2.6c0.2,0.9,0.5,1.8,1.2,2.7
	c0.8,0.8,1.8,1.4,2.7,1.7s1.7,0.3,2.6,0.3c5.6-0.2,11.1-1.1,16.1-2.6c9-2.6,17.9-7.5,23.6-15.3c0.5-0.5,0.3-1.1-0.3-1.8
	C45.6,129.8,45.3,129.8,44.7,130z M150.1,5.4c-0.5,16.7-3.6,57.9-25.4,79.9c-9.9,9.9-15,13.1-26.4,20.3c-8.1,4.9-19.4,12-37.7,24.8
	c-0.9,0.6-2,0.9-2.9,0.9c-1.2,0-2.7-0.6-3.6-1.5L20.6,96.2c-1.8-1.8-2-4.5-0.6-6.6c12.8-18.4,19.8-29.5,24.8-37.8
	c7.1-11.3,10.4-16.6,20.3-26.5C87,3.5,128.1,0.3,144.8,0h0.1c1.3,0,2.7,0.6,3.6,1.5C149.4,2.4,150,3.8,150.1,5.4z M95.5,39.3
	c-6,0.7-10.8,5.7-11.6,11.6c-1,8.9,6.3,16.3,14.9,14.9c6-0.8,10.8-5.7,11.6-11.6C111.4,45.4,104.2,38.2,95.5,39.3z M63.4,137.1
	l9.2,9.2c2,1.8,5,2,6.9,0.2c6.8-6,20.4-19.7,21.6-33.9c-7.7,5-18.5,11.7-35,23.2C65.2,136.2,64.3,136.6,63.4,137.1z"/>
</svg>
