<?xml version="1.0" encoding="utf-8"?>
<!-- Generator: Adobe Illustrator 24.2.3, SVG Export Plug-In . SVG Version: 6.00 Build 0)  -->
<svg version="1.1" id="ee_circular" xmlns="http://www.w3.org/2000/svg" xmlns:xlink="http://www.w3.org/1999/xlink" x="0px"
	 y="0px" viewBox="0 0 150 150" style="enable-background:new 0 0 150 150;" xml:space="preserve">
<style type="text/css">
	.st0{fill:#FFFFFF;}
</style>
<path class="st0" d="M75,0C33.6,0,0,33.6,0,75s33.6,75,75,75s75-33.6,75-75S116.4,0,75,0z M31.5,48.6h45.3l-3.3,12.9H27.9L31.5,48.6
	z M20.7,68.4H57l-3.3,12.9H17.4L20.7,68.4z M62.7,101.4H17.4l3.3-12.9H66L62.7,101.4z M76.5,68.4h36.6l-3.3,12.9H73.2L76.5,68.4z
	 M118.8,101.4H73.5l3.3-12.9h45.3L118.8,101.4z M84,61.5l3.3-12.9h45.3l-3.3,12.9H84z"/>
</svg>
