<?xml version="1.0" encoding="utf-8"?>
<!-- Generator: Adobe Illustrator 25.2.3, SVG Export Plug-In . SVG Version: 6.00 Build 0)  -->
<svg version="1.1" id="eric_emanuel" xmlns="http://www.w3.org/2000/svg" xmlns:xlink="http://www.w3.org/1999/xlink" x="0px"
	 y="0px" viewBox="0 0 220 50" style="enable-background:new 0 0 220 50;" xml:space="preserve">
<style type="text/css">
	.st0{fill:#FFFFFF;}
</style>
<path class="st0" d="M123.1,16.3v1.1h-9.8v6.8h9.7v1h-9.7v7.3h9.9v1.1h-11.1V16.3H123.1z M126.7,16.1l7.7,15.5l7.9-15.5h0.3v17.6
	h-1.2V20.4L134.5,34h-0.3l-6.6-13.5v13.2h-1.2V16.1H126.7z M152.6,16.1l7.6,17.6h-1.3l-2.6-6h-7.8l-2.6,6h-1.3l7.6-17.6H152.6z
	 M148.9,26.8h7.1l-3.6-8.3L148.9,26.8z M162.7,16.1L175,31V16.3h1.2v17.6h-0.3L163.5,19v14.6h-1.2V16.1H162.7z M180.8,16.3v10.4
	c0,0.9,0.1,1.8,0.3,2.5s0.5,1.4,0.9,1.9s0.9,0.9,1.6,1.2c0.6,0.3,1.4,0.4,2.4,0.4c1.8,0,3.1-0.5,3.9-1.5s1.2-2.5,1.2-4.6V16.3h1.2
	v10.4c0,2.5-0.5,4.3-1.6,5.4c-1.1,1.2-2.6,1.8-4.7,1.8c-2.2,0-3.7-0.6-4.8-1.8c-1-1.2-1.5-3-1.5-5.3V16.3H180.8z M206.7,16.3v1.1
	h-9.8v6.8h9.7v1h-9.7v7.3h9.9v1.1h-11.1V16.3H206.7z M211.2,16.3v16.2h8.8v1.1h-10.1V16.3H211.2z M68.4,16.3v2.4h-8.8v5h8.7v2.2
	h-8.7v5.4h8.8v2.4H57.2V16.3H68.4z M78.3,16.3c0.8,0,1.5,0.1,2.1,0.4s1.1,0.6,1.5,1.1s0.7,1,0.9,1.6c0.2,0.6,0.3,1.2,0.3,1.9
	c0,1-0.2,1.9-0.7,2.7c-0.4,0.8-1.1,1.5-2.1,1.8l4.4,7.8H82l-4.1-7.5h-4v7.5h-2.4V16.3H78.3z M73.9,24.4h4c0.5,0,0.9-0.1,1.2-0.2
	s0.6-0.4,0.8-0.6c0.2-0.3,0.4-0.6,0.5-0.9s0.2-0.7,0.2-1.1s0-0.7-0.2-1.1s-0.3-0.6-0.5-0.9s-0.5-0.5-0.8-0.6s-0.7-0.2-1.2-0.2h-4
	V24.4z M89.1,16.3v17.3h-2.4V16.3H89.1z M105.2,20.5c-0.7-0.6-1.4-1-2.2-1.4c-0.8-0.4-1.7-0.6-2.7-0.6c-0.8,0-1.6,0.1-2.3,0.4
	c-0.7,0.3-1.3,0.7-1.8,1.3c-0.5,0.5-0.9,1.2-1.2,2c-0.3,0.8-0.4,1.7-0.4,2.8c0,1.1,0.1,2,0.4,2.8s0.7,1.5,1.2,2.1s1.1,1,1.8,1.3
	c0.7,0.3,1.4,0.4,2.3,0.4c0.5,0,1-0.1,1.4-0.2c0.5-0.1,0.9-0.3,1.3-0.5s0.8-0.5,1.1-0.9c0.3-0.4,0.6-0.8,0.8-1.2l1.8,1.5
	c-0.3,0.6-0.7,1.2-1.2,1.6c-0.5,0.5-1,0.8-1.6,1.1s-1.2,0.5-1.8,0.7c-0.6,0.1-1.3,0.2-2,0.2c-1.2,0-2.3-0.2-3.3-0.7
	c-1-0.4-1.9-1-2.6-1.8s-1.3-1.7-1.7-2.8c-0.4-1.1-0.6-2.4-0.6-3.7s0.2-2.6,0.6-3.7s1-2,1.7-2.8s1.6-1.3,2.6-1.8
	c1-0.4,2.1-0.6,3.3-0.6c1.3,0,2.5,0.2,3.5,0.7s2,1,2.8,1.8L105.2,20.5z M25,0C11.2,0,0,11.2,0,25s11.2,25,25,25s25-11.2,25-25
	S38.7,0,25,0z M10.4,16.2h15.1l-1.1,4.4H9.3L10.4,16.2z M6.9,22.8H19l-1.1,4.4H5.8L6.9,22.8z M20.9,33.8H5.8l1.1-4.4H22L20.9,33.8z
	 M25.5,22.8h12.1l-1.1,4.4H24.4L25.5,22.8z M39.5,33.8H24.4l1.1-4.4h15.1L39.5,33.8z M27.9,20.6l1.1-4.4h15.1L43,20.6H27.9z"/>
</svg>
