<?xml version="1.0" encoding="utf-8"?>
<!-- Generator: Adobe Illustrator 25.2.3, SVG Export Plug-In . SVG Version: 6.00 Build 0)  -->
<svg version="1.1" id="imusica" xmlns="http://www.w3.org/2000/svg" xmlns:xlink="http://www.w3.org/1999/xlink" x="0px" y="0px"
	 viewBox="0 0 150 41.7" style="enable-background:new 0 0 150 41.7;" xml:space="preserve">
<style type="text/css">
	.st0{fill:#FFFFFF;}
</style>
<path class="st0" d="M150,22c-0.1-2.8-1.7-4.9-4.4-5.5c-2.9-0.7-5.7-0.4-8.4,0.8c-0.4,0.1-0.4,0.3-0.3,0.7c0.3,0.8,0.5,1.5,0.8,2.3
	c0.2,0.6,0.4,0.7,0.9,0.5c1.6-0.5,3.2-0.8,4.8-0.5c1.1,0.2,1.9,0.8,2.2,2c0.2,0.9,0.1,0.9-0.7,0.7c-2.1-0.5-4.2-0.6-6.2,0.1
	c-4.1,1.4-3.9,6.4-1.8,8.2c1.4,1.2,3,1.5,4.7,1.4c1.6-0.1,2.9-0.7,4.1-1.9c0,0.5,0,0.7,0,1c-0.1,0.5,0.2,0.7,0.7,0.7
	c1,0,2.1,0,3.1,0c0.4,0,0.6-0.1,0.6-0.6C150,28.4,150,25.2,150,22z M143.6,29.1c-0.4,0.1-0.9,0.2-1.4,0.2c-0.4,0-0.8,0-1.2-0.2
	c-0.7-0.2-1.2-0.7-1.3-1.4c-0.1-0.8,0.1-1.5,0.9-1.9c1.6-0.8,3.2-0.6,4.7-0.1c0.2,0.1,0.3,0.3,0.3,0.5
	C145.8,27.7,145.1,28.7,143.6,29.1z M128.5,32.6c-4.9,0-8.3-3.1-8.7-7.7c-0.4-4.1,2.5-8,6.7-8.7c2.8-0.5,5.4,0,7.5,2
	c0.4,0.4,0.5,0.6,0.1,1c-0.7,0.7-1.4,1.4-2,2.1c-0.3,0.3-0.5,0.3-0.8,0c-0.8-0.7-1.6-1.3-2.7-1.4c-2.3-0.2-4.1,1.3-4.3,3.6
	c-0.1,0.6-0.1,1.1,0,1.7c0.6,3,3.6,4.3,6.2,2.7c0.1-0.1,0.2-0.1,0.3-0.2c1.1-0.8,1.1-0.8,2,0.2c0.4,0.4,0.8,0.9,1.2,1.2
	c0.4,0.4,0.4,0.6,0,1C132.5,31.8,130.5,32.7,128.5,32.6z M112.9,17.1c0-0.6,0.2-0.8,0.8-0.8c1,0,2.1,0,3.2,0c0.5,0,0.7,0.1,0.7,0.7
	c0,4.9,0,9.8,0,14.7c0,0.5-0.2,0.7-0.6,0.7c-1.1,0-2.2,0-3.3,0c-0.6,0-0.7-0.2-0.7-0.7C113,29.1,113,19.5,112.9,17.1z M112.6,12.2
	c0-1.5,1.2-2.7,2.7-2.7s2.6,1.2,2.7,2.7c0,1.5-1.2,2.7-2.6,2.7C113.8,14.9,112.7,13.8,112.6,12.2z M104.6,16.1
	c1.9,0,3.7,0.6,5.4,1.5c0.4,0.2,0.5,0.4,0.2,0.8c-0.4,0.7-0.8,1.4-1.2,2.1c-0.2,0.4-0.4,0.5-0.9,0.3c-1-0.5-2-1-3.1-1.2
	c-0.5-0.1-1.1-0.1-1.6,0.1c-0.8,0.3-0.9,1.1-0.2,1.6c0.4,0.3,0.9,0.5,1.4,0.7c1.1,0.4,2.2,0.7,3.3,1.2c2,1,3,2.4,2.8,4.3
	c-0.2,2.4-1.3,3.9-3.5,4.5c-3.3,0.9-6.4,0.2-9.2-1.8c-0.3-0.2-0.3-0.4-0.1-0.6c0.5-0.7,1-1.5,1.4-2.2c0.2-0.3,0.4-0.4,0.7-0.1
	c1,0.7,2.1,1.2,3.3,1.5c0.6,0.1,1.3,0.2,2,0.1c0.6-0.1,1.1-0.3,1.2-0.9s-0.3-1-0.8-1.2c-0.9-0.4-1.9-0.6-2.9-1
	c-1.1-0.4-2.2-0.8-3.1-1.6c-2.2-2.2-1.5-6,1.4-7.5C102.3,16.3,103.4,16.1,104.6,16.1z M91.6,30.3c-1.1,1.2-2.3,2.1-3.9,2.2
	c-3.2,0.4-5.9-1.6-6-4.9c-0.1-3.6,0-7.2-0.1-10.8c0-0.4,0.2-0.5,0.5-0.5c1.2,0,2.3,0,3.5,0c0.6,0,0.5,0.4,0.5,0.8c0,2.6,0,5.2,0,7.8
	c0,0.4,0,0.8,0.1,1.2c0.2,1.6,1.2,2.4,2.7,2.3c1.5,0,2.5-1,2.6-2.5c0.1-1.3,0-2.6,0-3.9c0-1.7,0-3.3,0-5c0-0.5,0.2-0.8,0.7-0.7
	c1.1,0,2.2,0,3.3,0c0.4,0,0.6,0.2,0.6,0.6c0,4.9,0,9.8,0,14.7c0,0.5-0.2,0.6-0.7,0.6c-1.1,0-2.2,0-3.3,0c-0.5,0-0.7-0.2-0.7-0.7
	C91.7,31.2,91.8,30.8,91.6,30.3z M59.6,18.2c0.1-0.1,0.2-0.3,0.3-0.4c2.4-2.7,6.9-2.2,8.3,0.3c0.3,0.5,0.5,0.1,0.7-0.1
	c1.7-1.7,3.7-2.2,6-1.9c2.4,0.4,4,2.1,4.2,4.6c0.2,2.1,0.1,9.3,0.1,10.8c0,0.6-0.2,0.8-0.8,0.8c-1,0-2.1,0-3.1,0
	c-0.6,0-0.8-0.2-0.8-0.8c0-2.6,0-5.3,0-7.9c0-0.4,0-0.8-0.1-1.2c-0.2-1.4-1.1-2.2-2.4-2.2c-1.4,0-2.3,0.7-2.6,2.1
	c-0.1,0.4-0.1,0.8-0.1,1.2c0,2.6,0,5.3,0,7.9c0,0.6-0.2,0.9-0.8,0.8c-1,0-2,0-3,0c-0.6,0-0.8-0.2-0.8-0.8c0-2.6,0-5.2,0-7.8
	c0-0.4,0-0.8-0.1-1.2c-0.2-1.5-1.1-2.3-2.5-2.3s-2.4,0.8-2.6,2.3c-0.1,0.4-0.1,0.7-0.1,1.1c0,2.6,0,5.3,0,7.9c0,0.7-0.2,0.9-0.8,0.8
	c-1,0-2.1,0-3.1,0c-0.5,0-0.7-0.1-0.7-0.7c0-4.9,0-9.8,0-14.7c0-0.5,0.2-0.7,0.6-0.7c1.1,0,2.2,0,3.3,0c0.5,0,0.7,0.2,0.7,0.7
	c0,0.4,0,0.8,0,1.2C59.5,18.2,59.5,18.2,59.6,18.2z M47.2,17.3c0-1,0-1,1.1-1c0.9,0,1.7,0,2.6,0c1,0,1,0,1,1c0,4.4,0,13.9,0,14.4
	c0,0.5-0.2,0.7-0.6,0.7c-1.1,0-2.2,0-3.3,0c-0.6,0-0.7-0.2-0.7-0.8C47.2,29.1,47.2,19.6,47.2,17.3z M49.5,9.5c1.5,0,2.6,1.2,2.6,2.7
	s-1.2,2.7-2.7,2.7s-2.6-1.2-2.6-2.7S48,9.5,49.5,9.5z M25.3,20.8c0,2.4-2,4.4-4.4,4.4s-4.4-2-4.4-4.4s1.9-4.3,4.4-4.3
	S25.3,18.4,25.3,20.8z M17.9,38.6c0-1.7,1.4-3,3.1-3s3,1.4,3,3.1c0,1.7-1.4,3-3.1,3C19.2,41.7,17.9,40.3,17.9,38.6z M11.1,37.2
	c0-1.7,1.3-3,3-3s3,1.4,3,3s-1.4,3-3,3C12.4,40.3,11.1,38.9,11.1,37.2z M3,23.8c-1.7,0-3-1.3-3-3s1.4-3,3-3s3,1.3,3,3
	S4.7,23.8,3,23.8z M14.1,7.3c-1.7,0-3-1.3-3-2.9c0-1.7,1.3-3.1,3-3.1c1.6,0,3.1,1.4,3,3C17.1,6,15.7,7.3,14.1,7.3z M36.6,8.2
	c0,1.7-1.4,3-3.1,3c-1.6,0-3-1.4-2.9-3c0-1.7,1.4-3,3.1-3C35.3,5.2,36.6,6.6,36.6,8.2z M1.4,27.7c0-1.7,1.3-3,2.9-3
	c1.7,0,3.1,1.3,3.1,3s-1.3,3-3,3C2.7,30.6,1.4,29.3,1.4,27.7z M41.8,20.8c0,1.7-1.3,3-3,3s-3.1-1.3-3-3c0-1.7,1.4-3,3.1-3
	C40.5,17.8,41.8,19.2,41.8,20.8z M20.9,0c1.7,0,3,1.3,3,2.9s-1.4,3-3,3c-1.7,0-3-1.4-3-3S19.2,0,20.9,0z M4.4,17c-1.7,0-3-1.3-3-3
	c0-1.6,1.3-3,3-3c1.6,0,3,1.4,3,3S6.1,16.9,4.4,17z M11.2,33.5c0,1.7-1.3,3-3,3c-1.6,0-3-1.4-3-3c0-1.7,1.4-3,3.1-2.9
	C10,30.5,11.3,31.8,11.2,33.5z M11.2,8.2c0,1.7-1.3,3-3,3c-1.6,0-3-1.4-3-3s1.4-3,3-3C9.9,5.2,11.2,6.5,11.2,8.2z M34.5,27.6
	c0-1.6,1.3-3,2.9-3c1.7,0,3,1.3,3.1,3c0,1.6-1.3,3-3,3S34.5,29.3,34.5,27.6z M34.5,13.9c0-1.7,1.3-3,3-3s3.1,1.4,3,3
	c0,1.7-1.4,3-3,3C35.8,17,34.4,15.6,34.5,13.9z M27.7,7.3c-1.7,0-3-1.3-3-3s1.3-3,3-3c1.6,0,3,1.4,3,3C30.8,6,29.4,7.3,27.7,7.3z
	 M24.8,37.3c0-1.7,1.3-3,2.9-3c1.7,0,3.1,1.3,3.1,3c0,1.6-1.4,3-3,3C26.1,40.3,24.8,39,24.8,37.3z M36.6,33.4c0,1.7-1.3,3-3,3
	c-1.6,0-3-1.3-3-3c0-1.6,1.3-3,2.9-3C35.2,30.5,36.6,31.7,36.6,33.4z M20.9,35c-1.2,0-2.1-0.9-2.1-2.1c0-1.1,1-2.1,2.1-2
	c1.1,0,2,0.9,2,2.1C23,34.1,22.1,35,20.9,35z M34.2,25.5c0,1.1-1,2-2.1,2c-1.2,0-2-1-2-2.2c0-1.1,1-2,2.1-2
	C33.4,23.4,34.2,24.3,34.2,25.5z M16.2,34.1c-1.1,0-2.1-0.9-2.1-2c0-1.1,0.9-2.1,2-2.1c1.2,0,2.1,0.9,2.1,2.1
	C18.3,33.2,17.4,34.1,16.2,34.1z M27.6,32c0,1.1-0.9,2-2,2.1c-1.2,0-2.1-0.9-2.1-2.1c0-1.1,0.9-2,2.1-2C26.7,30,27.6,30.9,27.6,32z
	 M9.7,14.1c1.1,0,2,1,2,2.1s-1,2-2.1,2s-2-1-2-2.1C7.6,15,8.5,14.1,9.7,14.1z M20.9,10.7c-1.1,0-2-0.9-2-2s1-2.1,2.1-2.1s2,1,2,2.1
	S22,10.7,20.9,10.7z M16.2,7.5c1.2,0,2,0.8,2.1,2c0,1.1-0.9,2.1-2,2.1s-2.1-0.9-2.1-2C14.2,8.5,15.1,7.6,16.2,7.5z M11.7,25.5
	c0,1.1-1,2-2.1,2c-1.2,0-2.1-1-2-2.1c0-1.1,1-2,2.1-2S11.7,24.4,11.7,25.5z M12.3,10.2c1.2,0,2,0.8,2,2c0,1.1-0.9,2-2,2.1
	c-1.2,0-2.1-0.9-2.1-2.1C10.2,11.1,11.2,10.2,12.3,10.2z M31.6,12.3c0,1.1-1,2-2.1,2s-2-1-2-2.1c0-1.2,0.9-2,2.1-2
	C30.8,10.2,31.6,11.1,31.6,12.3z M8.7,22.8c-1.2,0-2-0.9-2-2s0.9-2,2.1-2c1.1,0,2.1,0.9,2.1,2C10.8,22,9.9,22.8,8.7,22.8z
	 M33.1,22.8c-1.2,0-2.1-0.8-2.1-2c0-1.1,0.9-2.1,2.1-2.1c1.1,0,2,0.9,2.1,2C35.2,21.9,34.3,22.8,33.1,22.8z M14.3,29.4
	c0,1.2-0.9,2.1-2.1,2.1c-1.1,0-2-0.9-2-2.1c0-1.1,0.9-2,2.1-2C13.5,27.4,14.3,28.2,14.3,29.4z M29.5,27.4c1.2,0,2,0.8,2.1,2
	c0,1.2-0.9,2.1-2,2.1s-2-0.9-2-2C27.5,28.3,28.4,27.4,29.5,27.4z M25.6,7.5c1.2,0,2,0.9,2,2s-0.9,2-2,2.1c-1.2,0-2.1-0.9-2.1-2.1
	C23.5,8.4,24.4,7.5,25.6,7.5z M34.2,16.2c0,1.1-0.9,2-2,2c-1.1,0-2-0.9-2-2c0-1.2,0.9-2.1,2.1-2.1C33.4,14.1,34.2,15,34.2,16.2z
	 M21,27.5c0.8,0,1.3,0.7,1.3,1.4c0,0.8-0.7,1.3-1.4,1.3c-0.8,0-1.4-0.7-1.3-1.5C19.6,28,20.2,27.5,21,27.5z M13.9,15.1
	c0-0.8,0.6-1.4,1.4-1.4c0.7,0,1.3,0.6,1.3,1.3c0,0.8-0.6,1.4-1.3,1.4C14.4,16.5,13.9,15.9,13.9,15.1z M24,26.9
	c0.7,0,1.4,0.7,1.3,1.4c0,0.7-0.6,1.3-1.4,1.3s-1.4-0.6-1.4-1.4C22.7,27.5,23.3,26.9,24,26.9z M17.8,12c0.8,0,1.4,0.5,1.4,1.3
	s-0.6,1.4-1.4,1.4s-1.3-0.6-1.4-1.3C16.4,12.7,17,12,17.8,12z M22.3,12.7c0,0.8-0.6,1.4-1.4,1.4c-0.7,0-1.4-0.6-1.4-1.4
	c0-0.7,0.6-1.3,1.3-1.4C21.6,11.4,22.3,12,22.3,12.7z M13.4,19.1c-0.8,0-1.3-0.6-1.3-1.4s0.6-1.3,1.4-1.3c0.8,0,1.3,0.6,1.3,1.4
	C14.8,18.6,14.2,19.1,13.4,19.1z M12.8,19.5c0.8,0,1.4,0.6,1.3,1.4c0,0.8-0.6,1.3-1.3,1.3c-0.8,0-1.4-0.6-1.4-1.4
	C11.5,20,12.1,19.4,12.8,19.5z M26.6,13.7c0.7,0,1.4,0.6,1.4,1.4c0,0.7-0.6,1.4-1.4,1.4c-0.7,0-1.3-0.6-1.4-1.3
	C25.2,14.4,25.8,13.8,26.6,13.7z M26.6,27.9c-0.8,0-1.4-0.6-1.4-1.4s0.6-1.3,1.4-1.3c0.7,0,1.3,0.6,1.3,1.3
	C28,27.3,27.4,27.9,26.6,27.9z M19.2,28.3c0,0.7-0.7,1.4-1.4,1.4c-0.7,0-1.4-0.7-1.4-1.4c0-0.7,0.7-1.3,1.4-1.3
	C18.5,26.9,19.2,27.5,19.2,28.3z M27,23.9c0-0.8,0.6-1.4,1.3-1.4c0.8,0,1.4,0.6,1.4,1.4c0,0.7-0.6,1.3-1.3,1.4
	C27.7,25.3,27,24.7,27,23.9z M30.4,20.8c0,0.7-0.6,1.4-1.4,1.4c-0.7,0-1.3-0.6-1.4-1.3c0-0.8,0.6-1.4,1.4-1.4
	C29.7,19.4,30.4,20.1,30.4,20.8z M13.4,25.3c-0.7,0-1.3-0.6-1.3-1.4s0.6-1.4,1.4-1.4c0.7,0,1.4,0.6,1.4,1.4
	C14.8,24.7,14.1,25.3,13.4,25.3z M25.4,13.4c0,0.8-0.6,1.4-1.4,1.4c-0.7,0-1.3-0.6-1.4-1.3c0-0.8,0.6-1.4,1.3-1.4
	C24.8,12,25.4,12.6,25.4,13.4z M16.5,26.5c0,0.8-0.6,1.4-1.4,1.3c-0.8,0-1.3-0.5-1.3-1.3s0.5-1.4,1.3-1.4
	C15.9,25.2,16.5,25.7,16.5,26.5z M28.4,19.1c-0.8,0-1.3-0.5-1.4-1.3c0-0.8,0.5-1.4,1.3-1.4s1.4,0.6,1.4,1.4
	C29.7,18.5,29.2,19.1,28.4,19.1z"/>
</svg>
