<?xml version="1.0" encoding="utf-8"?>
<!-- Generator: Adobe Illustrator 25.0.1, SVG Export Plug-In . SVG Version: 6.00 Build 0)  -->
<svg version="1.1" id="Layer_1" xmlns="http://www.w3.org/2000/svg" xmlns:xlink="http://www.w3.org/1999/xlink" x="0px" y="0px"
	 viewBox="0 0 20 20" style="enable-background:new 0 0 20 20;" xml:space="preserve">
<style type="text/css">
	.st0{fill:#FFFFFF;}
</style>
<g transform="translate(-0.898)">
	<path class="st0" d="M20.8,5.9c0-0.8-0.2-1.7-0.5-2.4c-0.5-1.3-1.6-2.4-2.9-2.9c-0.8-0.3-1.6-0.4-2.4-0.5C14,0,13.6,0,10.9,0
		S7.8,0,6.8,0.1c-0.8,0-1.6,0.2-2.4,0.5C3.7,0.8,3.1,1.2,2.6,1.7C2.1,2.2,1.7,2.8,1.4,3.4C1.1,4.2,1,5,1,5.9C0.9,6.9,0.9,7.3,0.9,10
		s0,3.1,0.1,4.1c0,0.8,0.2,1.7,0.5,2.4C1.9,17.9,3,19,4.3,19.5c0.8,0.3,1.6,0.4,2.4,0.5c1.1,0,1.4,0.1,4.1,0.1s3.1,0,4.1-0.1
		c0.8,0,1.7-0.2,2.4-0.5c1.3-0.5,2.4-1.6,2.9-2.9c0.3-0.8,0.4-1.6,0.5-2.4c0-1.1,0.1-1.4,0.1-4.1S20.9,6.9,20.8,5.9z M19,14
		c0,0.6-0.1,1.3-0.3,1.9c-0.3,0.9-1,1.6-1.9,1.9c-0.6,0.2-1.2,0.3-1.9,0.3c-1.1,0-1.4,0.1-4,0.1s-3,0-4-0.1c-0.6,0-1.3-0.1-1.9-0.3
		c-0.4-0.2-0.8-0.4-1.1-0.7c-0.3-0.3-0.6-0.7-0.7-1.1c-0.2-0.6-0.3-1.2-0.3-1.9c0-1.1-0.1-1.4-0.1-4s0-3,0.1-4
		c0-0.6,0.1-1.3,0.3-1.9C3.3,3.7,3.5,3.3,3.9,3C4.2,2.6,4.6,2.4,5,2.2C5.6,2,6.2,1.9,6.9,1.9c1.1,0,1.4-0.1,4-0.1s3,0,4,0.1
		c0.6,0,1.3,0.1,1.9,0.3C17.2,2.4,17.6,2.6,18,3c0.3,0.3,0.6,0.7,0.7,1.1C18.9,4.7,19,5.3,19,6c0,1.1,0.1,1.4,0.1,4S19.1,13,19,14
		L19,14z"/>
	<path class="st0" d="M10.9,4.9c-2.8,0-5.1,2.3-5.1,5.1c0,2.8,2.3,5.1,5.1,5.1c2.8,0,5.1-2.3,5.1-5.1C16,7.2,13.7,4.9,10.9,4.9z
		 M10.9,13.3c-1.8,0-3.3-1.5-3.3-3.3c0-1.8,1.5-3.3,3.3-3.3c1.8,0,3.3,1.5,3.3,3.3v0C14.2,11.8,12.7,13.3,10.9,13.3L10.9,13.3z"/>
	<path class="st0" d="M17.4,4.7c0,0.7-0.5,1.2-1.2,1.2c-0.7,0-1.2-0.5-1.2-1.2s0.5-1.2,1.2-1.2S17.4,4,17.4,4.7L17.4,4.7z"/>
</g>
</svg>
