<svg xmlns="http://www.w3.org/2000/svg" width="20" height="20" viewBox="0 0 20 20"><defs><style>.a{fill:#fff;}</style></defs><path class="a" d="M825.855,633.073a1.465,1.465,0,0,1,1.057.422,1.367,1.367,0,0,1,.437,1.017v17.143a1.328,1.328,0,0,1-.437,1.006,1.459,1.459,0,0,1-1.035.412H808.82a1.455,1.455,0,0,1-1.034-.412,1.327,1.327,0,0,1-.437-1.006V634.512a1.365,1.365,0,0,1,.437-1.017,1.464,1.464,0,0,1,1.057-.422h17.011Zm-12.713,6.045a1.594,1.594,0,0,0,0-2.24,1.677,1.677,0,0,0-1.218-.445,1.718,1.718,0,0,0-1.23.445,1.478,1.478,0,0,0-.471,1.12,1.493,1.493,0,0,0,.46,1.12,1.643,1.643,0,0,0,1.2.446h.023A1.7,1.7,0,0,0,813.142,639.118Zm.276,1.681h-3.011v9.029h3.011Zm10.874,3.84a4.363,4.363,0,0,0-.989-3.062,3.587,3.587,0,0,0-4.3-.481,3.548,3.548,0,0,0-.9.983V640.8H815.1q.022.525,0,4.823v4.205h3.011v-5.051a2.231,2.231,0,0,1,.092-.731,1.82,1.82,0,0,1,.552-.754,1.532,1.532,0,0,1,1.012-.343,1.328,1.328,0,0,1,1.172.571,2.654,2.654,0,0,1,.345,1.463v4.845h3.011Z" transform="translate(-807.349 -633.073)"/></svg>