<?xml version="1.0" encoding="utf-8"?>
<!-- Generator: Adobe Illustrator 25.2.3, SVG Export Plug-In . SVG Version: 6.00 Build 0)  -->
<svg version="1.1" id="puc-rio" xmlns="http://www.w3.org/2000/svg" xmlns:xlink="http://www.w3.org/1999/xlink" x="0px" y="0px"
	 viewBox="0 0 150 77.2" style="enable-background:new 0 0 150 77.2;" xml:space="preserve">
<style type="text/css">
	.st0{fill:#FFFFFF;}
</style>
<path class="st0" d="M123.6,69c0-2.7,0.8-4.8,2.4-6.4c1.7-1.6,3.8-2.3,6.4-2.3c1.7,0,3.3,0.4,4.7,1.1c1.4,0.7,2.4,1.7,3.1,3
	s1.1,2.7,1.1,4.4s-0.4,3.1-1.1,4.4c-0.7,1.3-1.8,2.3-3.3,3c-1.4,0.7-2.8,1-4.5,1s-3.3-0.4-4.7-1.1c-1.4-0.7-2.4-1.7-3.1-3
	C124,71.7,123.6,70.4,123.6,69z M126.1,69c0,2,0.6,3.5,1.8,4.7c1.1,1.1,2.7,1.7,4.5,1.7c1.8,0,3.4-0.6,4.5-1.7s1.8-2.7,1.8-4.8
	c0-1.3-0.3-2.5-0.7-3.5c-0.6-1-1.3-1.7-2.3-2.3s-2.1-0.8-3.3-0.8c-1.7,0-3.3,0.6-4.5,1.6C126.8,64.8,126.1,66.4,126.1,69z
	 M110.4,76.9V60.7h2.4V77L110.4,76.9L110.4,76.9z M84.3,76.9V60.7h8.2c1.7,0,2.8,0.1,3.8,0.4c0.8,0.3,1.6,0.8,2.1,1.6
	s0.7,1.6,0.7,2.4c0,1.1-0.4,2.1-1.3,3c-0.8,0.8-2.1,1.3-4,1.6c0.7,0.3,1.1,0.6,1.4,0.8c0.7,0.6,1.4,1.3,2,2.1l3.3,4.4h-3L95,73.5
	c-0.7-1-1.3-1.7-1.7-2.3c-0.4-0.6-0.8-0.8-1.3-1.1c-0.4-0.1-0.7-0.3-1.1-0.4c-0.3,0-0.7-0.1-1.4-0.1h-2.8v7.2h-2.4
	C84.3,76.8,84.3,76.9,84.3,76.9z M86.8,67.7H92c1.1,0,2-0.1,2.7-0.3c0.6-0.1,1.1-0.6,1.4-1s0.4-1,0.4-1.4c0-0.7-0.3-1.4-1-1.8
	c-0.6-0.6-1.7-0.7-3-0.7h-5.8C86.8,62.5,86.8,67.7,86.8,67.7z M147.6,0l1.1,17.8h-1.1c-1.6-5.4-3.8-9.2-6.8-11.6
	c-3.1-2.3-6.6-3.4-10.7-3.4c-3.5,0-6.6,0.8-9.5,2.7c-2.8,1.8-5.1,4.5-6.6,8.5c-1.6,3.8-2.4,8.6-2.4,14.4c0,4.8,0.7,8.9,2.3,12.3
	c1.6,3.5,3.8,6.2,6.9,8.1c3.1,1.8,6.5,2.8,10.5,2.8c3.4,0,6.4-0.7,9-2.1c2.5-1.4,5.5-4.4,8.6-8.6l1.1,0.7c-2.7,4.7-5.7,8.1-9.2,10.3
	c-3.5,2.1-7.6,3.3-12.4,3.3c-8.6,0-15.4-3.3-20.2-9.6c-3.5-4.8-5.4-10.5-5.4-17c0-5.2,1.1-10,3.5-14.4s5.5-7.8,9.6-10.2
	c4.1-2.7,8.6-4,13.4-4c3.8,0,7.5,1,11.2,2.8c1.1,0.6,1.8,0.8,2.3,0.8c0.7,0,1.3-0.3,1.8-0.7c0.7-0.7,1.1-1.7,1.4-3h1.6V0z M80.4,2.7
	V1.3H99v1.4h-2c-2.1,0-3.7,0.8-4.8,2.5c-0.6,0.8-0.8,2.7-0.8,5.5V32c0,5.2-0.6,9.3-1.6,12.3s-3.1,5.4-6.1,7.5
	C80.6,54,76.5,55,71.3,55c-5.7,0-10-1-13-3s-5.1-4.7-6.4-8.1c-0.8-2.3-1.3-6.6-1.3-12.9V10.5c0-3.3-0.4-5.4-1.3-6.4S47,2.5,45.1,2.5
	h-2V1.1h22.6v1.4h-2c-2.1,0-3.7,0.7-4.7,2.1c-0.7,1-1,2.8-1,5.8v22.9c0,2,0.1,4.4,0.6,7.1c0.4,2.7,1,4.7,2,6.2
	c1,1.4,2.4,2.7,4.2,3.7c1.8,1,4.1,1.4,6.8,1.4c3.4,0,6.5-0.7,9.2-2.3s4.5-3.4,5.5-5.8c1-2.4,1.6-6.2,1.6-11.9V10.6
	c0-3.3-0.4-5.4-1.1-6.2c-1-1.1-2.5-1.7-4.5-1.7C82.3,2.7,80.4,2.7,80.4,2.7z M15,29.1v15.3c0,3.3,0.4,5.4,1.1,6.2
	c1,1.1,2.4,1.7,4.4,1.7h2v1.4H0v-1.4h2c2.3,0,3.8-0.7,4.8-2.1c0.6-0.8,0.7-2.7,0.7-5.7V10.6c0-3.3-0.3-5.4-1-6.2
	C5.5,3.3,4,2.7,2,2.7H0V1.3h19.2c4.7,0,8.3,0.4,11,1.4s4.9,2.5,6.8,4.9c1.8,2.3,2.8,4.9,2.8,8.2c0,4.2-1.4,7.8-4.2,10.5s-6.8,4-12,4
	c-1.3,0-2.7-0.1-4.1-0.3C18.2,29.7,16.5,29.4,15,29.1z M15,26.9c1.4,0.3,2.5,0.4,3.7,0.6c1,0.1,2,0.1,2.7,0.1c2.7,0,4.9-1,6.9-3.1
	s3-4.8,3-8.1c0-2.3-0.4-4.4-1.4-6.4s-2.3-3.4-4-4.4s-3.7-1.4-5.8-1.4c-1.3,0-3,0.3-5.1,0.7C15,4.9,15,26.9,15,26.9z"/>
</svg>
