<?xml version="1.0" encoding="utf-8"?>
<!-- Generator: Adobe Illustrator 25.2.3, SVG Export Plug-In . SVG Version: 6.00 Build 0)  -->
<svg version="1.1" id="sesc" xmlns="http://www.w3.org/2000/svg" xmlns:xlink="http://www.w3.org/1999/xlink" x="0px" y="0px"
	 viewBox="0 0 150 75" style="enable-background:new 0 0 150 75;" xml:space="preserve">
<style type="text/css">
	.st0{fill:#FFFFFF;}
</style>
<path class="st0" d="M119.2,54c0,0.8,0,1.5,0.1,2.3c-2.1-3.5-6.8-5.3-13.3-6.7c-8.4-1.7-9.6-2.5-9.4-4.3c0.2-1.8,3-3.4,7.2-3.4
	c3.3,0,6.5,0.8,9.5,2.1v-8.5c-3.3-1-6.7-1.6-10.1-1.6C92.6,33.9,85.5,39,84.9,46v0.1C82.3,39.2,76.3,34,66,34
	c-12.4,0-20.9,9.1-20.9,20.1c0,0.3,0,0.6,0,0.8c-2.3-5.1-8.4-7.4-16.7-9.2c-9.7-2.1-11.1-3-11.1-5.3c0-2.1,2.5-3.9,6.3-3.9
	c1.9,0,3.8,0.4,5.6,1.1c0,0,0,0,0,0l1.7,0.7C76.8-4.2,135.2,7.8,150,14.9c0,0-19.9-14.9-46-14.9C73.9,0,50.1,16.2,36.9,29.1
	c-4.3-1.5-8.8-2.3-13.3-2.3C12.1,26.8,4,32.6,4,41.3C4,48,7.5,51,13.6,53.1c0,0,0.1,0,0.1,0C9.2,56.6,3.6,62.6,0,66.5
	c1.4,1.1,3,2.2,4.6,3.1c6.4,3.5,13.4,5.2,20.7,5.2h0.1c12.3,0,20.1-5.3,20.5-14c2.6,7.9,9.9,13.1,19.8,13.1c3.1,0,6.1-0.4,9.1-1.2
	v-8.4c-4.2,1.2-6,1.3-8.4,1.2c-4.9-0.3-8.9-3-10-7.9H86c0.1-1,0.2-1.6,0.2-2.7v-0.1c0-1-0.1-2.1-0.2-3.1c2.3,3.1,7.2,4.4,14,5.7
	c8.3,1.7,8.7,2.9,8.7,4.9c0,1.7-2.2,3.7-7.1,3.5c-5-0.2-10.9-1.7-15.4-4.2v9.8C91.1,73.6,97,75,101.7,75c11.2,0,18.8-6.5,18.8-13.6
	c0-0.2,0-0.3,0-0.5c2,4.6,5.9,8.1,10.3,10.3c4.4,2.1,9.1,2.8,13,2.8c2.1,0,4.1-0.1,6.1-0.5v-8.3c-1,0.2-2,0.2-3,0.2
	c-8.3,0-15-5.2-15-11.6c0-6.4,6.8-11.5,15-11.5c1,0,2,0.1,3,0.2v-8.1c-1.9-0.3-3.8-0.4-5.7-0.4C129.9,34,119.2,42.5,119.2,54z
	 M25.6,64.7c-5,0-9.7-1.5-14.5-4.6c1.8-2.5,3.6-4.8,4.9-6.3c0,0,0,0,0,0c1.9,0.5,4.1,1,6.4,1.5c9.5,2,10.3,3.8,10.3,5.7
	C32.7,63.3,30.1,64.7,25.6,64.7z M56.5,51.1c1-4.9,4.4-8.1,9.6-8.1c5.3,0,8.6,3.3,9.3,8.1H56.5z"/>
</svg>
