<?xml version="1.0" encoding="utf-8"?>
<!-- Generator: Adobe Illustrator 25.0.1, SVG Export Plug-In . SVG Version: 6.00 Build 0)  -->
<svg version="1.1" id="Layer_1" xmlns="http://www.w3.org/2000/svg" xmlns:xlink="http://www.w3.org/1999/xlink" x="0px" y="0px"
	 viewBox="0 0 20 20" style="enable-background:new 0 0 20 20;" xml:space="preserve">
<style type="text/css">
	.st0{fill-rule:evenodd;clip-rule:evenodd;fill:#FFFFFF;}
</style>
<path class="st0" d="M17.1,2.9C15.2,1,12.7,0,10,0c-5.5,0-10,4.4-10,9.9c0,1.7,0.5,3.5,1.3,5L0,20l5.3-1.4c1.5,0.8,3.1,1.2,4.8,1.2
	h0c5.5,0,10-4.4,10-9.9C20,7.3,19,4.8,17.1,2.9z M10,18.2L10,18.2c-1.5,0-2.9-0.4-4.2-1.1l-0.3-0.2l-3.1,0.8l0.8-3L3,14.3
	C2.2,13,1.8,11.5,1.8,9.9c0-4.5,3.7-8.2,8.3-8.2c2.2,0,4.3,0.9,5.9,2.4s2.4,3.6,2.4,5.8C18.3,14.5,14.6,18.2,10,18.2z M14.6,12
	c-0.2-0.1-1.5-0.7-1.7-0.8c-0.2-0.1-0.4-0.1-0.6,0.1c-0.2,0.2-0.6,0.8-0.8,1c-0.1,0.2-0.3,0.2-0.5,0.1c-0.2-0.1-1.1-0.4-2-1.2
	c-0.7-0.7-1.2-1.5-1.4-1.7C7.5,9.1,7.6,9,7.7,8.9C8,8.6,8.3,8.2,8.3,8c0.1-0.2,0-0.3,0-0.4C8.3,7.5,7.8,6.3,7.6,5.8
	C7.4,5.3,7.1,5.3,7,5.3c-0.1,0-0.3,0-0.5,0c-0.2,0-0.4,0.1-0.7,0.3C5.6,5.9,5,6.5,5,7.7s0.9,2.4,1,2.6s1.8,2.7,4.3,3.7
	c0.6,0.3,1.1,0.4,1.4,0.5c0.6,0.2,1.1,0.2,1.6,0.1c0.5-0.1,1.5-0.6,1.7-1.2c0.2-0.6,0.2-1.1,0.1-1.2C15,12.2,14.8,12.1,14.6,12z"/>
</svg>
